/* XPM */
static char *result[] = {
/* columns rows colors chars-per-pixel */
"64 64 35 1 ",
"  c #A9D340",
". c #A9D440",
"X c #AAD440",
"o c #ABD440",
"O c #ABD540",
"+ c #ACD540",
"@ c #ADD540",
"# c #ACD640",
"$ c #ADD640",
"% c #AED640",
"& c #AFD740",
"* c #B0D740",
"= c #B1D740",
"- c #B0D840",
"; c #B1D840",
": c #B2D840",
"> c #B2D940",
", c #B3D940",
"< c #B4D940",
"1 c #B4DA40",
"2 c #B5DA40",
"3 c #B5DB40",
"4 c #B6DB40",
"5 c #B7DB40",
"6 c #B7DC40",
"7 c #B8DC40",
"8 c #B9DC40",
"9 c #B8DD40",
"0 c #B9DD40",
"q c #BADD40",
"w c #BADE40",
"e c #BBDE40",
"r c #BCDE40",
"t c #BCDF40",
"y c #BDDF40",
/* pixels */
"rryyrryyrryyrryyrryyrryyryyrryyrryyrryyrryyrryyrryyrryyrryyrryyr",
"rryyrryyrrytrrytrrytrrytrtyrrtyrrtyrrtyrryyrryyrrytrrytrrytrrytr",
"ttrrttrrttrrttrrttrrttrrtrrttrrttrrttrrttrrttrrttrrttrrttrrttrrt",
"rtrrttrrtrrrtrrrtrrrtrrrtrrrtrrrtrrrtrrrtrrttrrtrrrtrrrtrrrtrrrt",
"eerreerreerreerrerrrerrrerrrerrrerreerreerreerreerreerrerrrerrre",
"eeereereeereeereeereeereeereeereeereeereeereereeereeereeereeeree",
"eeeeeeeeeeeeeeeeeeeeeeeeeeeeeeeeeeeeeeeeeeeeeeeeeeeeeeeeeeeeeeee",
"eeeeeeeeeeeeeeeeeeeeeeeeeeeeeeeeeeeeeeeeeeeeeeeeeeeeeeeeeeeeeeee",
"qqwwqqwwqqwwqqwwqqwwqwwwqwwwqwwqqwwqqwwqqwwqqwwqqwwqqwwqqwwqwwwq",
"qqqqqqqqqqwqqqwqqqwqqqwqqqwqqqwqqqwqqqwqqqqqqqqqqwqqqwqqqwqqqwqq",
"qqqqqqqqqqqqqqqqqqqqqqqqqqqqqqqqqqqqqqqqqqqqqqqqqqqqqqqqqqqqqqqq",
"qqqqqqqqqqqqqqqqqqqqqqqqqqqqqqqqqqqqqqqqqqqqqqqqqqqqqqqqqqqqqqqq",
"8800880088008800880080008000800880088008800880088008800880088008",
"8800880088008800880088088808800880088008800880088008800880088008",
"0077007700770077007700780870077007700770077007700770077007700770",
"7777777777777777977797779777977797777777777777777777777777797779",
"6677667766776677667767776777677667766776677667766776677667766776",
"6677667766776677667766766676677667766776677667766776677667766766",
"7766776677667766776677667667766776677667766776677667766776677667",
"6666666666666666666666666666666666666666666666666666666666666666",
"4455445544554455445544544454455445544554455445544554455445544554",
"4444444444444444444444444444444444444444444444444444444444444444",
"4444444444444444444444444444444444444444444444444444444444444444",
"4444444444444444344424442444244434444444444444444444444344434442",
"2244224422442244224422432342244224422442244224422442244224422432",
"3322332233223322332233223223322332233223322332233223322332233223",
"3322332233223322322232223222322232233223322332233223322332232223",
"1111111111111111111111111111111111111111111111111111111111111111",
"<<11<<11<<11<<11<<11<<11<11<<11<<11<<11<<11<<11<<11<<11<<11<<11<",
"11<<11<<11<<11<<11<<11<<1<<11<<11<<11<<11<<11<<11<<11<<11<<11<<1",
"11<<11<<11<<11<<11<<1<<<1<<<1<<11<<11<<11<<11<<11<<11<<11<<1<<<1",
",,,,,,,,,,,,,,,,,,,,,,,,,,,,,,,,,,,,,,,,,,,,,,,,,,,,,,,,,,,,,,,,",
",,,,,,,,,,,,,,,,,,,,,,,,,,,,,,,,,,,,,,,,,,,,,,,,,,,,,,,,,,,,,,,,",
",,>>,,>,,,>,,,>,,,>,,,>,,,>,,,>,,,>,,,>,,,>,,>>,,>,,,>,,,>,,,>,,",
">>>>>>>>>>>>,>>>,>>>,>>>,>>>,>>>,>>>,>>>>>>>>>>>>>>,>>>,>>>,>>>,",
">:>>::>>:>>>:>>>:>>>:>>>:>>>:>>>:>>>:>>>:>>::>>:>>>:>>>:>>>:>>>:",
";;>>;;>>;;>>;;>:;;>:;;>;;;>;;:>;;:>;;>>;;>>;;>>;;>>;;>>;;>:;;>;;",
"::;;::;;::;;::;;::;;:;;;:;;;:;;::;;::;;::;;::;;::;;::;;::;;:;;;:",
";;;;;;;;;;;;;;;;;;;;;;;;:;;;:;;;;;;;;;;;;;;;;;;;;;;;;;;;;;;;;;;:",
"==;;==;;==;;=;;;=;;;=;;;=;;;=;;;=;;;=;;==;;==;;==;;=;;;=;;;=;;;=",
"**;;**;;**;-**;-**;-**;-*-;**-;**-;**-;**;;**;;**;-**;-**;-**;-*",
"--**--**--**--**--**--**-**--**--**--**--**--**--**--**--**--**-",
"--**--**-***-***-***-***-***-***-***-***-**--**--**-***-***-***-",
"&&**&&**&&**&&**&***&***&***&***&**&&**&&**&&**&&**&&**&&**&***&",
"&&&*&&*&&&*&&&*&&&*&&&*&&&*&&&*&&&*&&&*&&&*&&&&&&*&&&*&&&*&&&*&&",
"&&&&&&&&&&&&&&&&&&&&&&&&&&&&&&&&&&&&&&&&&&&&&&&&&&&&&&&&&&&&&&&&",
"&&&&&&&&&&&&&&&&&&&&&&&&&&&&&&&&&&&&&&&&&&&&&&&&&&&&&&&&&&&&&&&&",
"%%%%%%%%%%%%%%%%%%%%%%%%%%%%%%%%%%%%%%%%%%%%%%%%%%%%%%%%%%%%%%%%",
"%%%%%%%%%%%%%%%%%%%%%%%%%%%%%%%%%%%%%%%%%%%%%%%%%%%%%%%%%%%%%%%%",
"%%$$%%$$%%$$%%$$%%$$%%$$%$$%%$$%%$$%%$$%%$$%%$$%%$$%%$$%%$$%%$$%",
"$$$$$$$$$$$$$$$$%$$$%$$$%$$$%$$$%$$$$$$$$$$$$$$$$$$$$$$$$$$%$$$%",
"@@$$@@$$@@$$@@$$@@$$@@$$@$$@@$$@@$$@@$$@@$$@@$$@@$$@@$$@@$$@@$$@",
"@@$$@@$$@@$@@@$@@@$@@@$@@@$@@@$@@@$@@@$@@$$@@$$@@$$@@$@@@$@@@$@@",
"$$++$$++$$++$$++$$++$@++$++@$++$$++$$++$$++$$++$$++$$++$$++$$++$",
"++++++++++++++++++++#+++#+++#++++++++++++++++++++++++++++++#+++#",
"OO++OO++OO++OO++OO++OO++O++OO++OO++OO++OO++OO++OO++OO++OO++OO++O",
"OOOOOOOOOOOOOOOOOOOOOOOOOOOOOOOOOOOOOOOOOOOOOOOOOOOOOOOOOOOOOOOO",
"++oo++oo++oo++oo++oo+Ooo+ooO+oo++oo++oo++oo++oo++oo++oo++oo+Ooo+",
"ooooooooooooooooooooooooOooooooooooooooooooooooooooooooooooooooo",
"XXooXXooXXooXXooXXooXXoXXXoXXooXXooXXooXXooXXooXXooXXooXXooXXoXX",
"XXXXXXXXXXXXXXXXXXXXXXXXXXXXXXXXXXXXXXXXXXXXXXXXXXXXXXXXXXXXXXXX",
"XXXXXXXXXXXXXXXXXXXXXXXXXXXXXXXXXXXXXXXXXXXXXXXXXXXXXXXXXXXXXXXX",
".................... ... ... .............................. ... ",
"  ..  ..  ..  ..  ..  .   .  ..  ..  ..  ..  ..  ..  ..  ..  .. "
};
