/* XPM */
static char *result[] = {
/* columns rows colors chars-per-pixel */
"64 64 149 2 ",
"   c #76481C",
".  c #784A1B",
"X  c #85521F",
"o  c #915317",
"O  c #915419",
"+  c #935519",
"@  c #965719",
"#  c #95581A",
"$  c #975A1D",
"%  c #975B1D",
"&  c #985A1D",
"*  c #995B1E",
"=  c #A05E1D",
"-  c #B1671E",
";  c #B3681E",
":  c #B5691F",
">  c #8A5620",
",  c #8C5620",
"<  c #935B23",
"1  c #945B24",
"2  c #9B5C20",
"3  c #9E6023",
"4  c #9C6125",
"5  c #9F6226",
"6  c #A26325",
"7  c #A36325",
"8  c #A06326",
"9  c #A26425",
"0  c #A26426",
"q  c #A36426",
"w  c #A36526",
"e  c #A26427",
"r  c #A46425",
"t  c #A46426",
"y  c #A46526",
"u  c #A56526",
"i  c #A56627",
"p  c #A66727",
"a  c #A76727",
"s  c #AB6621",
"d  c #A86727",
"f  c #A76827",
"g  c #AA6928",
"h  c #AB6928",
"j  c #AA6929",
"k  c #AB6929",
"l  c #AC6A28",
"z  c #AC6A29",
"x  c #AE6C29",
"c  c #B56B21",
"v  c #B66A20",
"b  c #B76C21",
"n  c #B46B25",
"m  c #B16C27",
"M  c #B86C21",
"N  c #B96D22",
"B  c #BA6E24",
"V  c #BB6F24",
"C  c #B06D2A",
"Z  c #B26E2A",
"A  c #B46F2A",
"S  c #BC7025",
"D  c #BE7226",
"F  c #BE7227",
"G  c #B5702A",
"H  c #B9732C",
"J  c #BB732C",
"K  c #BC752C",
"L  c #BD752C",
"P  c #BE752D",
"I  c #BF762D",
"U  c #C07328",
"Y  c #C07428",
"T  c #C37428",
"R  c #C27529",
"E  c #C2762A",
"W  c #C4772A",
"Q  c #C4772B",
"!  c #C1772E",
"~  c #C4782B",
"^  c #C1782D",
"/  c #C3792E",
"(  c #C4782C",
")  c #C5782C",
"_  c #C5782D",
"`  c #C67A2D",
"'  c #C4792E",
"]  c #C6792E",
"[  c #C57A2F",
"{  c #C77A2E",
"}  c #C77B2E",
"|  c #C67B2F",
" . c #C77B2F",
".. c #C87B2E",
"X. c #C97B2F",
"o. c #C87C2F",
"O. c #C97C2F",
"+. c #C97D2F",
"@. c #C97C30",
"#. c #C87D30",
"$. c #C97D30",
"%. c #CA7C30",
"&. c #CA7D30",
"*. c #CA7D31",
"=. c #C97E30",
"-. c #7EC144",
";. c #7DC345",
":. c #7EC244",
">. c #72CB46",
",. c #73CB46",
"<. c #72CB47",
"1. c #73CB47",
"2. c #76C946",
"3. c #75CA46",
"4. c #74CB47",
"5. c #71CC46",
"6. c #71CC47",
"7. c #72CC46",
"8. c #73CC46",
"9. c #72CC47",
"0. c #73CC47",
"q. c #73CD47",
"w. c #74CC46",
"e. c #74CD47",
"r. c #73CC48",
"t. c #73CD48",
"y. c #B48933",
"u. c #B78E35",
"i. c #B68F35",
"p. c #BD8833",
"a. c #BE8833",
"s. c #BA8B34",
"d. c #B88D34",
"f. c #AB9938",
"g. c #A99B39",
"h. c #A89C39",
"j. c #8AAC3D",
"k. c #97AC3D",
"l. c #9AA83C",
"z. c #98AA3D",
"x. c #C58131",
"c. c #C68031",
"v. c #C78031",
"b. c #C68131",
"n. c #C18532",
"m. c #8AB741",
"M. c #81BF43",
"N. c #84BC42",
"B. c None",
/* pixels */
"B.B.B.B.B.B.B.B.B.B.B.B.B.B.B.B.B.B.B.B.B.B.B.B.B.B.B.B.B.B.B.B.B.B.B.B.B.B.B.B.B.B.B.B.B.B.B.B.B.B.B.B.B.B.B.B.B.B.B.B.B.B.B.B.",
"B.B.B.B.B.B.B.B.B.B.B.B.B.B.B.B.B.B.B.B.B.B.B.B.B.B.B.B.B.B.B.B.B.B.B.B.B.B.B.B.B.B.B.B.B.B.B.B.B.B.B.B.B.B.B.B.B.B.B.B.B.B.B.B.",
"B.B.B.B.B.B.B.B.B.B.B.B.B.B.B.B.B.B.B.B.B.B.B.B.B.B.B.B.B.B.B.B.B.B.B.B.B.B.B.B.B.B.B.B.B.B.B.B.B.B.B.B.B.B.B.B.B.B.B.B.B.B.B.B.",
"B.B.B.B.B.B.B.B.B.B.B.B.B.B.B.B.B.B.B.B.B.B.B.B.B.B.B.B.B.B.B.B.B.B.B.B.B.B.B.B.B.B.B.B.B.B.B.B.B.B.B.B.B.B.B.B.B.B.B.B.B.B.B.B.",
"B.B.B.B.B.B.B.B.B.B.B.B.B.B.B.B.B.B.B.B.B.B.B.B.B.B.B.B.B.B.B.B.B.B.B.B.B.B.B.B.B.B.B.B.B.B.B.B.B.B.B.B.B.B.B.B.B.B.B.B.B.B.B.B.",
"B.B.B.B.B.B.B.B.B.B.B.B.B.B.B.B.B.B.B.B.B.B.B.B.B.B.B.B.B.B.B.B.B.B.B.B.B.B.B.B.B.B.B.B.B.B.B.B.B.B.B.B.B.B.B.B.B.B.B.B.B.B.B.B.",
"B.B.B.B.B.B.B.B.B.B.B.B.B.B.B.B.B.B.B.B.B.B.B.B.B.B.B.B.B.B.B.B.B.B.B.B.B.B.B.B.B.B.B.B.B.B.B.B.B.B.B.B.B.B.B.B.B.B.B.B.B.B.B.B.",
"B.B.B.B.B.B.B.B.B.B.B.B.B.B.B.B.B.B.B.B.B.B.B.B.B.B.B.B.B.B.B.>.7.0.7.B.B.B.B.B.B.B.B.B.B.B.B.B.B.B.B.B.B.B.B.B.B.B.B.B.B.B.B.B.",
"B.B.B.B.B.B.B.B.B.B.B.B.B.B.B.B.B.B.B.B.B.B.B.B.B.B.B.B.B.B.9.0.0.0.0.B.B.B.B.B.q.1.q.B.B.B.B.B.B.B.B.B.B.B.B.B.B.B.B.B.B.B.B.B.",
"B.B.B.B.B.B.B.B.B.B.B.B.B.B.B.B.B.B.B.B.7.7.0.0.B.B.B.B.B.9.0.0.0.0.0.r.B.B.9.e.0.0.0.0.w.B.B.B.B.B.B.B.B.B.B.B.B.B.B.B.B.B.B.B.",
"B.B.B.B.B.B.B.B.B.B.B.B.B.B.B.B.B.B.B.5.8.0.0.t.8.0.B.B.B.q.0.0.0.0.0.<.B.B.0.0.0.0.0.0.0.B.B.B.B.B.B.B.B.B.B.B.B.B.B.B.B.B.B.B.",
"B.B.B.B.B.B.B.B.B.B.B.B.B.B.B.B.B.B.B.0.0.0.0.0.0.0.0.B.B.q.0.0.0.0.0.9.B.0.0.0.0.0.0.0.0.0.B.B.B.B.B.B.B.B.B.B.B.B.B.B.B.B.B.B.",
"B.B.B.B.B.B.B.B.B.B.B.B.B.B.B.B.B.B.B.8.0.0.0.0.0.0.0.0.B.8.0.0.0.0.0.9.>.0.0.0.0.0.0.0.0.<.B.B.B.B.B.B.B.B.B.B.B.B.B.B.B.B.B.B.",
"B.B.B.B.B.B.B.B.B.B.B.B.B.B.B.B.B.B.B.0.0.0.0.0.0.0.0.0.0.1.0.0.0.0.0.t.0.0.0.0.0.0.0.0.0.0.B.B.B.B.B.B.B.B.B.B.B.B.B.B.B.B.B.B.",
"B.B.B.B.B.B.B.B.B.B.B.B.B.B.B.B.B.B.B.0.0.0.0.0.0.0.0.0.0.0.0.0.0.0.0.0.0.0.0.0.0.0.0.0.8.B.B.B.B.B.B.B.B.B.B.B.B.B.B.B.B.B.B.B.",
"B.B.B.B.B.B.B.B.B.B.B.B.B.B.B.B.B.B.B.w.0.0.0.0.0.0.0.0.0.0.0.0.0.0.0.0.0.0.0.0.0.0.0.0.0.B.B.B.B.B.B.B.B.B.B.B.B.B.B.B.B.B.B.B.",
"B.B.B.B.B.B.B.B.B.B.B.B.B.B.B.B.B.B.B.B.8.0.0.0.0.0.0.0.0.0.0.0.0.0.0.0.0.0.0.0.0.0.8.7.B.B.B.B.B.B.B.B.B.B.B.B.B.B.B.B.B.B.B.B.",
"B.B.B.B.B.B.B.B.B.B.B.B.B.B.B.B.B.B.B.B.q.8.0.0.0.0.0.0.0.0.0.0.0.0.0.0.0.0.0.0.e.9.B.B.B.B.B.B.B.B.B.B.B.B.B.B.B.B.B.B.B.B.B.B.",
"B.B.B.B.B.B.B.B.B.B.B.B.B.B.B.B.B.B.B.B.B.B.q.0.0.0.0.0.0.0.0.0.0.0.0.0.0.0.0.1.B.B.B.B.B.B.B.B.B.B.B.B.B.B.B.B.B.B.B.B.B.B.B.B.",
"B.B.B.B.B.B.B.B.B.B.B.B.B.B.B.B.B.B.B.B.B.B.B.B.8.0.0.0.0.0.0.0.0.0.0.0.0.0.B.B.B.B.B.B.B.B.B.B.B.B.B.B.B.B.B.B.B.B.B.B.B.B.B.B.",
"B.B.B.B.B.B.B.B.B.B.B.B.B.B.B.B.B.B.B.B.B.B.B.B.B.B.0.0.0.0.0.0.0.0.0.0.0.B.B.B.B.B.B.B.B.B.B.B.B.B.B.B.B.B.B.B.B.B.B.B.B.B.B.B.",
"B.B.B.B.B.B.B.B.B.B.B.B.B.B.B.B.B.B.B.B.B.B.B.B.B.B.6.7.0.0.0.0.0.0.0.0.1.B.B.B.B.B.B.B.B.B.B.B.B.B.B.B.B.B.B.B.B.B.B.B.B.B.B.B.",
"B.B.B.B.B.B.B.B.B.B.B.B.B.B.B.B.B.B.B.B.B.B.B.B.B.B.B.,.0.0.0.0.0.0.0.0.8.B.B.B.B.B.B.B.B.B.B.B.B.B.B.B.B.B.B.B.B.B.B.B.B.B.B.B.",
"B.B.B.B.B.B.B.B.B.B.B.B.B.B.B.B.B.B.B.B.B.B.B.B.B.B.B.B.0.0.0.0.0.0.0.0.>.B.B.B.B.B.B.B.B.B.B.B.B.B.B.B.B.B.B.B.B.B.B.B.B.B.B.B.",
"B.B.B.B.B.B.B.B.B.B.B.B.B.B.B.B.B.B.B.B.B.B.B.B.B.B.B.y.;.0.0.0.0.0.0.0.j.B.B.B.B.B.B.B.B.B.B.B.B.B.B.B.B.B.B.B.B.B.B.B.B.B.B.B.",
"B.B.B.B.B.B.B.B.B.B.B.B.B.B.B.B.B.B.B.B.B.B.B.B.B.&.&.b.k.0.0.0.0.0.0.0.f.| G f B.B.B.B.B.B.B.B.B.B.B.B.B.B.B.B.B.B.B.B.B.B.B.B.",
"B.B.B.B.B.B.B.B.B.B.B.B.B.B.B.B.B.B.B.B.B.B.B.B.%.&.&.=.g.4.0.0.0.0.0.2.n.&.@.L d B.B.B.B.B.B.B.B.B.B.B.B.B.B.B.B.B.B.B.B.B.B.B.",
"B.B.B.B.B.B.B.B.B.B.B.B.B.B.B.B.B.B.B.B.B.B.B.&.&.&.&.&.d.M.0.0.0.0.3.z.c.&.&.&.J i B.B.B.B.B.B.B.B.B.B.B.B.B.B.B.B.B.B.B.B.B.B.",
"B.B.B.B.B.B.B.B.B.B.B.B.B.B.B.B.B.B.B.B.B.B.*.&.&.&.&.&.b.h.m.-.:.N.l.p.&.&.&.&.@.C w B.B.B.B.B.B.B.B.B.B.B.B.B.B.B.B.B.B.B.B.B.",
"B.B.B.B.B.B.B.B.B.B.B.B.B.B.B.B.B.B.B.B.B.B.&.&.&.&.&.&.&.v.a.u.i.s.x.&.&.&.&.&.&.^ 0 r B.B.B.B.B.B.B.B.B.B.B.B.B.B.B.B.B.B.B.B.",
"B.B.B.B.B.B.B.B.B.B.B.B.B.B.B.B.B.B.B.B.B.%.&.&.&.&.&.&.&.&.&.&.&.&.&.&.&.&.&.&.&.$.a q B.B.B.B.B.B.B.B.B.B.B.B.B.B.B.B.B.B.B.B.",
"B.B.B.B.B.B.B.B.B.B.B.B.B.B.B.B.B.B.B.B.B.&.&.&.&.&.&.&.&.&.&.&.&.&.&.&.&.&.&.&.&.&.k q B.B.B.B.B.B.B.B.B.B.B.B.B.B.B.B.B.B.B.B.",
"B.B.B.B.B.B.B.B.B.B.B.B.B.B.B.B.B.B.B.B.B.&.&.&.&.&.&.&.&.&.&.&.&.&.&.&.&.&.&.&.&.&.k q B.B.B.B.B.B.B.B.B.B.B.B.B.B.B.B.B.B.B.B.",
"B.B.B.B.B.B.B.B.B.B.B.B.B.B.B.B.B.B.B.B.B.+.&.&.&.&.&.&.&.&.&.&.&.&.&.&.&.&.&.&.&.&.p e B.B.B.B.B.B.B.B.B.B.B.B.B.B.B.B.B.B.B.B.",
"B.B.B.B.B.B.B.B.B.B.B.B.B.B.B.B.B.B.B.B.B.%.&.&.&.&.&.&.&.&.&.&.&.&.&.&.&.&.&.&.&. .9 3 B.B.B.B.B.B.B.B.B.B.B.B.B.B.B.B.B.B.B.B.",
"B.B.B.B.B.B.B.B.B.B.B.B.B.B.B.B.B.B.B.B.B.B.&.&.&.&.&.&.&.&.&.&.&.&.&.&.&.&.&.&.&./ % $ B.B.B.B.B.B.B.B.B.B.B.B.B.B.B.B.B.B.B.B.",
"B.B.B.B.B.B.B.B.B.B.B.B.B.B.B.B.B.B.B.B.B.B.X.&.&.&.&.&.&.&.&.&.&.&.&.&.&.&.&.O.Q = O B.B.B.B.B.B.B.B.B.B.B.B.B.B.B.B.B.B.B.B.B.",
"B.B.B.B.B.B.B.B.B.B.B.B.B.B.B.B.B.B.B.B.B.B.T ..&.&.&.&.&.&.&.&.&.&.&.&.O.{ E V - + # B.B.B.B.B.B.B.B.B.B.B.B.B.B.B.B.B.B.B.B.B.",
"B.B.B.B.B.B.B.B.B.B.B.B.B.B.B.B.B.B.B.B.B.B.B.D ) &.&.&.&.&.&.&.&.&.&.&.O._ U D s & B.B.B.B.B.B.B.B.B.B.B.B.B.B.B.B.B.B.B.B.B.B.",
"B.B.B.B.B.B.B.B.B.B.B.B.B.B.B.B.B.B.B.B.B.B.B.M b S Q O.&.&.&.&.&.&.&.&.&.&.&.[ h 6 B.B.B.B.B.B.B.B.B.B.B.B.B.B.B.B.B.B.B.B.B.B.",
"B.B.B.B.B.B.B.B.B.B.B.B.B.B.B.B.B.B.B.B.B.B.B.B.; ; : v B R O.&.&.&.&.&.&.&.&.P p B.B.B.B.B.B.B.B.B.B.B.B.B.B.B.B.B.B.B.B.B.B.B.",
"B.B.B.B.B.B.B.B.B.B.B.B.B.B.B.B.B.B.B.B.B.B.B.B.] ~ ~ ) &.&.&.&.&.&.&.&.&.&.@.A w B.B.B.B.B.B.B.B.B.B.B.B.B.B.B.B.B.B.B.B.B.B.B.",
"B.B.B.B.B.B.B.B.B.B.B.B.B.B.B.B.B.B.B.B.B.B.B.B.&.%.&.&.&.&.&.&.&.&.&.&.&.&.' l t B.B.B.B.B.B.B.B.B.B.B.B.B.B.B.B.B.B.B.B.B.B.B.",
"B.B.B.B.B.B.B.B.B.B.B.B.B.B.B.B.B.B.B.B.B.B.B.B.B.&.&.&.&.&.&.&.&.&.&.&.&.&.P 7 B.B.B.B.B.B.B.B.B.B.B.B.B.B.B.B.B.B.B.B.B.B.B.B.",
"B.B.B.B.B.B.B.B.B.B.B.B.B.B.B.B.B.B.B.B.B.B.B.B.B.%.&.&.&.&.&.&.&.&.&.&.&.O.m * B.B.B.B.B.B.B.B.B.B.B.B.B.B.B.B.B.B.B.B.B.B.B.B.",
"B.B.B.B.B.B.B.B.B.B.B.B.B.B.B.B.B.B.B.B.B.B.B.B.B.#.&.&.&.&.&.&.&.&.O.( Y c @ o B.B.B.B.B.B.B.B.B.B.B.B.B.B.B.B.B.B.B.B.B.B.B.B.",
"B.B.B.B.B.B.B.B.B.B.B.B.B.B.B.B.B.B.B.B.B.B.B.B.B.B.&.&.&.&.&.&.&.&.&.O.) n 2 B.B.B.B.B.B.B.B.B.B.B.B.B.B.B.B.B.B.B.B.B.B.B.B.B.",
"B.B.B.B.B.B.B.B.B.B.B.B.B.B.B.B.B.B.B.B.B.B.B.B.B.B.$.&.&.&.&.&.&.&.&.&.@.g q B.B.B.B.B.B.B.B.B.B.B.B.B.B.B.B.B.B.B.B.B.B.B.B.B.",
"B.B.B.B.B.B.B.B.B.B.B.B.B.B.B.B.B.B.B.B.B.B.B.B.B.B.W ` &.&.&.&.&.&.&.&.! 0 u B.B.B.B.B.B.B.B.B.B.B.B.B.B.B.B.B.B.B.B.B.B.B.B.B.",
"B.B.B.B.B.B.B.B.B.B.B.B.B.B.B.B.B.B.B.B.B.B.B.B.B.B.B.N F ~ } &.&.&.&.&.Z 0 B.B.B.B.B.B.B.B.B.B.B.B.B.B.B.B.B.B.B.B.B.B.B.B.B.B.",
"B.B.B.B.B.B.B.B.B.B.B.B.B.B.B.B.B.B.B.B.B.B.B.B.B.B.B.) ..O.$.&.&.&.&.[ p y B.B.B.B.B.B.B.B.B.B.B.B.B.B.B.B.B.B.B.B.B.B.B.B.B.B.",
"B.B.B.B.B.B.B.B.B.B.B.B.B.B.B.B.B.B.B.B.B.B.B.B.B.B.B.B.*.&.&.&.&.&.&.H y B.B.B.B.B.B.B.B.B.B.B.B.B.B.B.B.B.B.B.B.B.B.B.B.B.B.B.",
"B.B.B.B.B.B.B.B.B.B.B.B.B.B.B.B.B.B.B.B.B.B.B.B.B.B.B.B. .&.&.&.&.&.o.x 8 B.B.B.B.B.B.B.B.B.B.B.B.B.B.B.B.B.B.B.B.B.B.B.B.B.B.B.",
"B.B.B.B.B.B.B.B.B.B.B.B.B.B.B.B.B.B.B.B.B.B.B.B.B.B.B.B.4 O.&.&.&.&.I a X B.B.B.B.B.B.B.B.B.B.B.B.B.B.B.B.B.B.B.B.B.B.B.B.B.B.B.",
"B.B.B.B.B.B.B.B.B.B.B.B.B.B.B.B.B.B.B.B.B.B.B.B.B.B.B.B.B.K &.&.&.o.A 5 B.B.B.B.B.B.B.B.B.B.B.B.B.B.B.B.B.B.B.B.B.B.B.B.B.B.B.B.",
"B.B.B.B.B.B.B.B.B.B.B.B.B.B.B.B.B.B.B.B.B.B.B.B.B.B.B.B.B.< | &.&.I a . B.B.B.B.B.B.B.B.B.B.B.B.B.B.B.B.B.B.B.B.B.B.B.B.B.B.B.B.",
"B.B.B.B.B.B.B.B.B.B.B.B.B.B.B.B.B.B.B.B.B.B.B.B.B.B.B.B.B.B.z  .[ j , B.B.B.B.B.B.B.B.B.B.B.B.B.B.B.B.B.B.B.B.B.B.B.B.B.B.B.B.B.",
"B.B.B.B.B.B.B.B.B.B.B.B.B.B.B.B.B.B.B.B.B.B.B.B.B.B.B.B.B.B.B.> 1   B.B.B.B.B.B.B.B.B.B.B.B.B.B.B.B.B.B.B.B.B.B.B.B.B.B.B.B.B.B.",
"B.B.B.B.B.B.B.B.B.B.B.B.B.B.B.B.B.B.B.B.B.B.B.B.B.B.B.B.B.B.B.B.B.B.B.B.B.B.B.B.B.B.B.B.B.B.B.B.B.B.B.B.B.B.B.B.B.B.B.B.B.B.B.B.",
"B.B.B.B.B.B.B.B.B.B.B.B.B.B.B.B.B.B.B.B.B.B.B.B.B.B.B.B.B.B.B.B.B.B.B.B.B.B.B.B.B.B.B.B.B.B.B.B.B.B.B.B.B.B.B.B.B.B.B.B.B.B.B.B.",
"B.B.B.B.B.B.B.B.B.B.B.B.B.B.B.B.B.B.B.B.B.B.B.B.B.B.B.B.B.B.B.B.B.B.B.B.B.B.B.B.B.B.B.B.B.B.B.B.B.B.B.B.B.B.B.B.B.B.B.B.B.B.B.B.",
"B.B.B.B.B.B.B.B.B.B.B.B.B.B.B.B.B.B.B.B.B.B.B.B.B.B.B.B.B.B.B.B.B.B.B.B.B.B.B.B.B.B.B.B.B.B.B.B.B.B.B.B.B.B.B.B.B.B.B.B.B.B.B.B.",
"B.B.B.B.B.B.B.B.B.B.B.B.B.B.B.B.B.B.B.B.B.B.B.B.B.B.B.B.B.B.B.B.B.B.B.B.B.B.B.B.B.B.B.B.B.B.B.B.B.B.B.B.B.B.B.B.B.B.B.B.B.B.B.B.",
"B.B.B.B.B.B.B.B.B.B.B.B.B.B.B.B.B.B.B.B.B.B.B.B.B.B.B.B.B.B.B.B.B.B.B.B.B.B.B.B.B.B.B.B.B.B.B.B.B.B.B.B.B.B.B.B.B.B.B.B.B.B.B.B."
};
