/* XPM */
static char *result[] = {
/* columns rows colors chars-per-pixel */
"64 64 89 1 ",
"  c #010001",
". c #0A0909",
"X c #3E393B",
"o c #514A4E",
"O c #564E53",
"+ c #575054",
"@ c #5B5357",
"# c #65565C",
"$ c #6A5A5F",
"% c #73696E",
"& c #746A70",
"* c #786D74",
"= c #7F747A",
"- c #81767D",
"; c #8D747D",
": c #E17D98",
"> c #8E8289",
", c #9A8D94",
"< c #A3878F",
"1 c #A08791",
"2 c #A38993",
"3 c #A88A94",
"4 c #AD8C98",
"5 c #B08F99",
"6 c #BE8E9C",
"7 c #B6929D",
"8 c #B8939E",
"9 c #B596A0",
"0 c #BB96A1",
"q c #BD99A5",
"w c #BD9EA9",
"e c #BDA3AD",
"r c #BEADB7",
"t c #C38B9B",
"y c #CB889C",
"u c #D9829A",
"i c #E1809B",
"p c #D78CA1",
"a c #C29BA7",
"s c #C59DAA",
"d c #C999A8",
"f c #E18BA3",
"g c #E494AB",
"h c #E498AE",
"j c #E39DB2",
"k c #C4A1AD",
"l c #CAA2AE",
"z c #C0A6B0",
"x c #CDA4B1",
"c c #D7ACB9",
"v c #D9AEBC",
"b c #C3B1BB",
"n c #DDB2BF",
"m c #E2A1B4",
"M c #E2AABB",
"N c #E9AABE",
"B c #C7B6C0",
"V c #CCBBC5",
"C c #D2B5C0",
"Z c #DCB3C1",
"A c #DEB8C5",
"S c #D1BFC9",
"D c #EAADC1",
"F c #E3B6C4",
"G c #EAB5C7",
"H c #E4B8C6",
"J c #EBB6C8",
"K c #E5BDCA",
"L c #EABBCC",
"P c #D5C3CE",
"I c #D7C5D0",
"U c #DAC7D2",
"Y c #DECAD6",
"T c #E7C1CE",
"R c #E8C2CF",
"E c #E4C6D2",
"W c #E9C4D2",
"Q c #ECC9D6",
"! c #E2CED9",
"~ c #EDCDDA",
"^ c #E4D0DC",
"/ c #EED1DE",
"( c #F0D0DE",
") c #EED5E1",
"_ c #EFD9E6",
"` c #F0D6E3",
"' c #F1DAE6",
"] c #F2DDE9",
"[ c None",
/* pixels */
"[[[[[[[[[[[[[[][[[[[[[[[[[[[[[[[[[[[[[[[[[[[[[[[[[[[[[[[[[[[[[[[",
"[[[[[[[[[[[[[[]][[[[[[[[[[[[[[[[[[[[[[[[[[[[[]]][[[[[[[[[[[[[[[[",
"[[[[[[[[[[[[[[]]]][[[[[[[[[[[[[[[[[[[[[[[[[[]]]][[[[[[[[[[[[[[[[",
"[[[[[[[[[[[[[[]]]]][[[[[[[[[[[[[[[[[[[[[[[[']]]][[[[[[[[[[[[[[[[",
"[[[[[[[[[[[[[]]]]]]][[[[[[[[[[[[[[[[[[[[[[]]]]]][[[[[[[[[[[[[[[[",
"[[[[[[[[[[[[[]]]'']]][[[[[[[[[[[[[[[[[[[]]]]']]][[[[[[[[[[[[[[[[",
"[[[[[[[[[[[[[]]]T/]]]][[[[[[[[[[[[[[[[[]]]]'Q/]]][[[[[[[[[[[[[[[",
"[[[[[[[[[[[[[]]]HFW]]]][[[[[[[[[[[[[[[]]]]_TFQ]]][[[[[[[[[[[[[[[",
"[[[[[[[[[[[[[]]]FFFT']]][[[[[[[[[[[[[[]]]'FFFH]]][[[[[[[[[[[[[[[",
"[[[[[[[[[[[[[]]'FFFFH_]]][[[[[[[[[[[[]]]'FFFFH]]][[[[[[[[[[[[[[[",
"[[[[[[[[[[[[[']`FFFFFH']][[[[[[[[[[[]]](FFFFFF']][[[[[[[[[[[[[[[",
"[[[[[[[[[[[[[]]`FFFFFFR]]][[[[[[[[[[]]'HFFFFFF''][[[[[[[[[[[[[[[",
"[[[[[[[[[[[[[]]/FFFFFFFQ]][[[[[[[[[[]]TFFFFFFF''][[[[[[[[[[[[[[[",
"[[[[[[[[[[[[[]]~FFFFFFFK]][[[[[[[[[]]'HFFFFFFF']][[[[[[[[[[[[[[[",
"[[[[[[[[[[[[[]]~FFFFFFFF']][[[[[[[[]]QHFFFFFFF''][[[[[[[[[[[[[[[",
"[[[[[[[[[[[[[]]/FFFFFFFF~]][[[[[[[[]]KFFFFFFFF''][[[[[[[[[[[[[[[",
"[[[[[[[[[[[[[]])FFFFFFFFT]][[[[[[[[]_HFFFFFFFH_]][[[[[[[[[[[[[[[",
"[[[[[[[[[[[[[]]`FFFFFFFFH'][[[[[[[]]'FFFFFFFFF']][[[[[[[[[[[[[[[",
"[[[[[[[[[[[[[]]'FFFFFFFFH'][[[[[[[]])HFFFFFFFF]][[[[[[[[[[[[[[[[",
"[[[[[[[[[[[[[[]'FFFFFFFFH']][[[[[[]])HFFFFFFFT]][[[[[[[[[[[[[[[[",
"[[[[[[[[[[[[[[]]KFFFFFFFF''][[[[[[]]/FFFFFFFFQ]][[[[[[[[[[[[[[[[",
"[[[[[[[[[[[[[[]]QFFFFFFFF)]][[[[[[]]QFFFFFFFH']][[[[[[[[[[[[[[[[",
"[[[[[[[[[[[[[[]]]FFFFFFFF/]][[[[[[]]WFFFFFFFH]][[[[[[[[[[[[[[[[[",
"[[[[[[[[[[[[[[[]]KFFFFFFF/]]]]]]]]]]TFFFFFFFW]][[[[[[[[[[[[[[[[[",
"[[[[[[[[[[[[[[[]]QFFFFFFF~]]]]]]]]]]TFFFFFFF/]][[[[[[[[[[[[[[[[[",
"[[[[[[[[[[[[[[[]]'HFFFFFH)]]]]]]]]]]/FFFFFFT]][[[[[[[[[[[[[[[[[[",
"[[[[[[[[[[[[[[[[]]QFFFFHW]]]]]]]]]]]'KFFFFF/]][[[[[[[[[[[[[[[[[[",
"[[[[[[[[[[[[[[[[]]'KFFFW]]]]]]]]]]]]]'KFFHW]]][[[[[[[[[[[[[[[[[[",
"[[[[[[[[[[[[[[[[[]]'/~)]]]]]]]]]]]]]]]]/~/']][[[[[[[[[[[[[[[[[[[",
"[[[[[[[[[[[[[[[[[]]]]]]]]]]]]]]]]]]]]]]]]]]]'[[[[[[[[[[[[[[[[[[[",
"[[[[[[[[[[[[[[[[]]]]]]]]]]]]]]]]]]]]]]]]]]]]]^[[[[[[[[[[[[[[[[[[",
"[[[[[[[[[[[[[[[]]]]]]]]]]]]]]]]]]]]]]]]]]]]]]]P[[[[[[[[[[[[[[[[[",
"[[[[[[[[[[[[[[]]]]]]]]]]]]]]]]]]]]]]]]]]]]]]]]^r[[[[[[[[[[[[[[[[",
"[[[[[[[[[[[[[[]]]]]]]]]]]]]]]]]]]]]]]]]]]]]]]]]V[[[[[[[[[[[[[[[[",
"[[[[[[[[[[[[[]]]]]]]]]]]]]]]]]]]]]]]]]]]]]]]]]]Ib[[[[[[[[[[[[[[[",
"[[[[[[[[[[[[[]]]]]]]]]]]]]]]]]]]]]]]]]]]]]]]]]]_b[[[[[[[[[[[[[[[",
"[[[[[[[[[[[[]]]]]]]]]]]]]]]]]]]]]]]]]]]]]]]]]]]]Vb[[[[[[[[[[[[[[",
"[[[[[[[[[[[[]]]]]]]]]]]]]]]]]]]]]]]]]]]]]]]]]]]]Pr[[[[[[[[[[[[[[",
"[[[[[[[[[[[[]]]]]]]]]]]]]]]]]]]]]]]]]]]]]]]]]]]]Ib[[[[[[[[[[[[[[",
"[[[[[[[[[[[[]]]]]]]]]]]]]]]]]]]]]]]]]]]]]]]]]]]]!rB[[[[[[[[[[[[[",
"[[[[[[[[[[[']]]]]]]]]]]]]rI]]]]]]]]Ib]]]]]]]]]]]^bb[[[[[[[[[[[[[",
"[[[[[[[[[[[]]]]]]]]]]]]], .r]]]]]]r. ,]]]]]]]]]]^bb[[[[[[[[[[[[[",
"[[[[[[[[[[[]]]]]]]]]]]]].  @]]]]]]+  .]]]]]]]]]]Ybb[[[[[[[[[[[[[",
"[[[[[[[[[[[]]]]]]]]]]]]]   O]]]]]]o   ]]]]]]]]]]Ybb[[[[[[[[[[[[[",
"[[[[[[[[[[[]]]]]]]]]]]]]O  =]]]]]]>  X]]]]]]]]]]Pbb[[[[[[[[[[[[[",
"[[[[[[[[[[[W']]]]]]]]]]]I&*!]]]]]]^-%P]]]]]]]]]]bbe[[[[[[[[[[[[[",
"[[[[[[[[[[[TK']]]]]]]]]]]PU]]]]]]]]YP_]]]]]]]]])bww[[[[[[[[[[[[[",
"[[[[[[[[[[[[FW]]]]]]]]]]]]]]]]]]]]]]]]]]]]]]]]]Pe7[[[[[[[[[[[[[[",
"[[[[[[[[[[[[FFW]]W]]]]]]]]]]]]]]]]]]]]]]]]]'W]]z77[[[[[[[[[[[[[[",
"[[[[[[[[[[[[HFFW]~JND(]]]]]]]]]]]]]]]]]](DNJ~]C777[[[[[[[[[[[[[[",
"[[[[[[[[[[[[[FFFR']](DNJQ]]]]]]]]]]]'QJND(]]]W877[[[[[[[[[[[[[[[",
"[[[[[[[[[[[[[FFFhjNNNDDNh:G]`(()(]]J:hNDDDDNjy870[[[[[[[[[[[[[[[",
"[[[[[[[[[[[[[[FFFFnW`LhgJ(]]h::::g]``GggL`QFa587[[[[[[[[[[[[[[[[",
"[[[[[[[[[[[[[[AFHmggmG/]]]]]f::::g]]]]'`Jmhpt787[[[[[[[[[[[[[[[[",
"[[[[[[[[[[[[[[[kFMFFFFHQ``]]Z::::A]]')WKFv0767<[[[[[[[[[[[[[[[[[",
"[[[[[[[[[[[[[[[[7nFFFFFFFFLWEduudEWLFFFFx77774[[[[[[[[[[[[[[[[[[",
"[[[[[[[[[[[[[[[[[3qnFFFFFFFFFc00vFFFFFl07777<[[[[[[[[[[[[[[[[[[[",
"[[[[[[[[[[[[[[[[[[$9ascFFFFFFFFFFFZxa857777#[[[[[[[[[[[[[[[[[[[[",
"[[[[[[[[[[[[[[[[[[[[;777qslxxxxls77777875;[[[[[[[[[[[[[[[[[[[[[[",
"[[[[[[[[[[[[[[[[[[[[[[#3587777777777753#[[[[[[[[[[[[[[[[[[[[[[[[",
"[[[[[[[[[[[[[[[[[[[[[[[[[[[19999991[[[[[[[[[[[[[[[[[[[[[[[[[[[[[",
"[[[[[[[[[[[[[[[[[[[[[[[[[[[[[[[[[[[[[[[[[[[[[[[[[[[[[[[[[[[[[[[[",
"[[[[[[[[[[[[[[[[[[[[[[[[[[[[[[[[[[[[[[[[[[[[[[[[[[[[[[[[[[[[[[[[",
"[[[[[[[[[[[[[[[[[[[[[[[[[[[[[[[[[[[[[[[[[[[[[[[[[[[[[[[[[[[[[[[["
};
