/* XPM */
static char *result[] = {
/* columns rows colors chars-per-pixel */
"64 64 174 2 ",
"   c #0E3D0E",
".  c #0D3F0F",
"X  c #0E3F0F",
"o  c #0F4911",
"O  c #104A12",
"+  c #114E12",
"@  c #125413",
"#  c #125515",
"$  c #135A16",
"%  c #155817",
"&  c #145B16",
"*  c #155F16",
"=  c #155F17",
"-  c #165B18",
";  c #165D18",
":  c #156217",
">  c #176019",
",  c #176119",
"<  c #166318",
"1  c #176219",
"2  c #166418",
"3  c #166518",
"4  c #166618",
"5  c #176719",
"6  c #18631A",
"7  c #18641A",
"8  c #18651A",
"9  c #18661A",
"0  c #18671A",
"q  c #19661B",
"w  c #19671B",
"e  c #1D651E",
"r  c #1D661F",
"t  c #176A1A",
"y  c #186819",
"u  c #18691A",
"i  c #19691B",
"p  c #186A1A",
"a  c #196A1B",
"s  c #186C1A",
"d  c #196C1B",
"f  c #196E1B",
"g  c #1A6B1C",
"h  c #1A6C1C",
"j  c #1A6D1C",
"k  c #1A6E1C",
"l  c #1B6E1D",
"z  c #1B6F1D",
"x  c #1A701C",
"c  c #1B701C",
"v  c #1B701D",
"b  c #1A711D",
"n  c #1B711D",
"m  c #1A721D",
"M  c #1B721D",
"N  c #1A731D",
"B  c #1B731D",
"V  c #19741C",
"C  c #1A741D",
"Z  c #1B741D",
"A  c #1A751D",
"S  c #1B751D",
"D  c #1B761D",
"F  c #1A771D",
"G  c #1B771D",
"H  c #1B751E",
"J  c #1B771E",
"K  c #1B791D",
"L  c #1B781E",
"P  c #1B791E",
"I  c #1B7A1E",
"U  c #1B7B1E",
"Y  c #1C7B1E",
"T  c #1B7D1D",
"R  c #1B7C1E",
"E  c #1B7D1E",
"W  c #1B7C1F",
"Q  c #1B7D1F",
"!  c #1C7C1E",
"~  c #1C7D1E",
"^  c #1C7C1F",
"/  c #1C7D1F",
"(  c #295F29",
")  c #216122",
"_  c #236924",
"`  c #2D6C2D",
"'  c #207022",
"]  c #2F732E",
"[  c #336332",
"{  c #386637",
"}  c #337432",
"|  c #337A33",
" . c #337E33",
".. c #3A7139",
"X. c #3A7639",
"o. c #3D763B",
"O. c #3F773D",
"+. c #41673E",
"@. c #416A3F",
"#. c #486A45",
"$. c #4D6C49",
"%. c #536D4F",
"&. c #447042",
"*. c #457842",
"=. c #477944",
"-. c #487846",
";. c #497946",
":. c #4B7A48",
">. c #4C7A49",
",. c #517B4D",
"<. c #5B7056",
"1. c #567852",
"2. c #5D7D58",
"3. c #63735D",
"4. c #63755D",
"5. c #6B7564",
"6. c #6E7767",
"7. c #6F7A68",
"8. c #72786A",
"9. c #72786B",
"0. c #75796D",
"q. c #7D7C75",
"w. c #817E78",
"e. c #877F7D",
"r. c #498247",
"t. c #498347",
"y. c #668060",
"u. c #6C8165",
"i. c #6E8167",
"p. c #6E8267",
"a. c #6E8168",
"s. c #71826A",
"d. c #74836C",
"f. c #75836E",
"g. c #7A8572",
"h. c #7B8573",
"j. c #808577",
"k. c #83807A",
"l. c #828679",
"z. c #88877F",
"x. c #8C8282",
"c. c #8F8C85",
"v. c #928A87",
"b. c #948389",
"n. c #99868D",
"m. c #9B868F",
"M. c #928A88",
"N. c #9B898F",
"B. c #9B8C8F",
"V. c #9D8892",
"C. c #9D8992",
"Z. c #9F8C93",
"A. c #9F8D93",
"S. c #A78E99",
"D. c #A68F99",
"F. c #A68E9A",
"G. c #B58FA7",
"H. c #B090A2",
"J. c #B993AA",
"K. c #B992AB",
"L. c #B993AB",
"P. c #BA91AC",
"I. c #C596B5",
"U. c #C695B6",
"Y. c #C795B7",
"T. c #C996B9",
"R. c #CA96B9",
"E. c #CB96BB",
"W. c #CD97BC",
"Q. c #CE97BD",
"!. c #CE98BD",
"~. c #CF98BE",
"^. c #D098BF",
"/. c None",
/* pixels */
"/./././././.R R / / / / / / / / / / / / / / / / / / / / / / / / / / / / / / / / / / / / / / / / / / E E E / / E W Q /./././././.",
"/./././.~ / / / / / / / / / / / / / / / / / / / / / / / / / / / / / / / / / / / / / / / / / / / / / / / / / R / / / / W /./././.",
"/././.E / / / / / / / / / / / / / / / / / / / / / / / / / / / / / / / / / / / / / / / / / / / / / / / / / / / E / / / / ~ /././.",
"/./.E / / / / / / / / / / / / / / / / / / / / / / / / / / / / / / / / / / / / / / / / / / / / / / / / / / / / / Q / / / / ! /./.",
"/././ / / / / / / / / / / / / / / / / / / / / / / / / / / / / / / / / / / / / / / / / / / / / / / / / / / / / / / ~ / / / / /./.",
"/.T / / / / / / / / / / / / / / / / / / / / / / / / / / / / / / / / / / / / / / / / / / / / / / / / / / / / / / / E / / / / Q /.",
"/.E / / / / / / / / / / / / / / / / / / / / / / / / / / / / / / / / / / / / / / / / / / / / / / / / / / / / / / / / E / / / Q /.",
"/./ / / / / / / / / / / / / / / / / / / / / / / / / / / / / / / / / / / / / / / / / / / / / / / / / / / / / / / / / E / / / ^ /.",
"/./ / / / / / / / / / / / / / / / / / / / / / / / / / / / / / / / / / / / / / / / / / / / / / / / / / / / / / / / / E / / / / /.",
"/./ / / / / / / / / / / / / / / / / / / / / / / / / / / / / / / / / / / / / / / / / / / / / / / / / / / / / / / / / R / / / / /.",
"/./ / / / / / / / / / / / / / / / / / / / / / / / / / / / / / / / / / / / / / / / / / / / / / / / / / / / / / / / / / / / / / /.",
"/./ / / / / / / / / / / / / / / / / / / / / / / / / / / / / / / / / / / / / / / / / / / / / / / / / / / / / / / / / / / / / / /.",
"/./ / / / / / / / / / / / / / / / / / / / / / / / / / / / / / / / / / / / / / / / / / / / / / / / / / / / / / / / / / / / / / /.",
"/./ / / / / / / / / / / / / / / / / / / / / / / / / / / / / / / / / / / / / / / / / / / / / / / / / / / / / / / / / / / / / / /.",
"/./ / / / / / / / / / / / / / / / / / / / / / / / / / / / / / / / / / / / / / / / / / / / / / / / / / / / / / / / / / / / / / /.",
"/./ / / / / / / / / / / / / / / / / / / / / / / / / / / / / / / / / / / / / / / / / / / / / / / / / / / / / / / / / / / / / / /.",
"/./ / / / / / / / / / / / / / / / / / / / / / / / / / / / / / / / / / / / / / / / / / / / / / / / / / / / / / / / / / / / / / /.",
"/./ / / / / / / / / / / / / / / / / / / / / / / / / / / / / / / / / / / / / / / / / / / / / / / / / / / / / / / / / / / / / / /.",
"/./ / / / / / / / / / / / / / / / / / / / / / / / / / / / / / / / / / / / / / / / / / / / / / / / / / / / / / / / / / / / / / /.",
"/./ / / / / / / / / / / / / / / / / / / / / / / / / / / / / / / / / / / / / / / / / / / / / / / / / / / / / / / / / / / / / / /.",
"/./ / / / / / / / / / / / / / / / / / / / / / / / / / / / / / / / / / / / / / / / / / / / / / / / / / / / / / / / / / / / / ^ /.",
"/.R / / / / / / / / / / / / / / / / / / / / / / / / / / / / / / / / / / / / / / / / / / / / / / / / / / / / / / / / / / / / I /.",
"/.K / / / / / / / / / / / / / / / / / / / / / / / / / / / / / / / / / / / / / / / / / / / / / / / / / / / / / / / / / / / / V /.",
"/.Z / / / / / / / / / / / / / / / / / / / / / / / / / / / / / / / / / / / / / / / / / / / / / / / / / / / / / / / / / / / / s /.",
"/.z I / / / / / / / / / / / / / / / / / / / / / / / / / / / / / / / / / / / / / / / / / / / / / / / / / / / / / / / / / / F 2 /.",
"/.z n R / / / / / / / / / / / / / / / / / / / / / / / / / / / / / / / / / / / / / / / / / / / / / / / / / / / / / / / / I 4 2 /.",
"/.z z v I / / / / / / / / / / / / / / / / / / / / / / / / / / / / / / / / / / / / / / / / / / / / / / / / / / / / / / A 4 2 2 /.",
"/.z z z z C P R / / / / / / / / / / / / / / / / / / / / / / / / / / / / / / / / / / / / / / / / / / / / / / / / Q I f 2 2 2 2 /.",
"/.z z z z z z z z z z z z z z z z z z z z z z z z z z z z z z z z z z z z z z z z z z z z z z z z z z z z z z z z z u 2 2 2 2 /.",
"/.z z z z z z z z z z z z z z z z z z z z z z z z z z z z z z z z z z z z z z z z z z z z z z z z z z z z z z z z z u 2 2 2 2 /.",
"/.z z z z z z z z z z z z z z z z z z z z z z z z z z z z z z z z z z z z z z z z z z z z z z z z z z z z z z z z z u 2 2 2 2 /.",
"/.z z z z z z z z z z z z z z z z z z z z z z z z z z z z z z z z z z z z z z z z z z z z z z z z z z z z z z z z z u 2 2 2 2 /.",
"/.z z z z z z z z z z z z z z z z z z z z z z z z z z z z z z z z z z z z z z ;.;.z z z z z z z z z z z z z z z z z u 2 2 2 2 /.",
"/.z z z z z z z z z z z z z z z z z z z z z z z z z z z z z z z z z z z z z A.^.^.Z.z z z z z z z z z z z z z z z z u 2 2 2 2 /.",
"/.z z z z z z z z z z z z z z z z z z z z z z z z z z z z z z z z z z M P t.^.^.^.^.;.z z z z z z z z z z z z z z z u 2 2 2 2 /.",
"/.z z z z z z z z z z z z z z z z z z z z z z z z z z z z z z z z z N / / r.^.^.^.^.-.z z z z z z z z z z z z z z z u 2 2 2 2 /.",
"/.z z z z z z z z z O.p.u.} z z z z z z z z z M Z b z z z z z z z z Y / / P C.^.^.V.g z z z z z z z z z z z z z z z u 2 2 2 2 /.",
"/.z z z z z z z z h.^.^.^.W.2.z z z z z z z P / / / | z.J.B.=.z z B / ^ S v , +.@.t z z z z z o.v.J.M.*.z z z z z z u 2 2 2 2 /.",
"/.z z z z z z z >.^.^.^.^.^.W.] z z z z z n n z B  .I.^.^.^.~.,.z H / C z z z h h B z z z z ;.Q.^.^.^.Q.:.z z z z z u 2 2 2 2 /.",
"/.z z z z z z z g.^.^.^.^.^.^.u.z z z z z z z z z z.^.^.^.^.^.L.z Z P z z z z z z z z z z z H.^.^.^.^.^.L.z z z z z u 2 2 2 2 /.",
"/.z z z z z z z j.^.^.^.^.^.^.i.z z z z z z z z z K.^.^.^.^.^.^.z b Z z z z z z z z z z z z ~.^.^.^.^.^.^.z z z z z u 2 2 2 2 /.",
"/.z z z z z z z 1.^.^.^.^.^.~...z z z z z z z z z N.^.^.^.^.^.U.z z v z z z z z z z z z z z Y.^.^.^.^.^.E.z z z z z u 2 2 2 2 /.",
"/.z z z z z z z i b.^.^.^.^.0.h z z z z z z z z z &.~.^.^.^.^.7.z z z z z z z z z z z z z z k.^.^.^.^.^.x.z z z z z u 2 2 2 2 /.",
"/.z z z z z z z z 1 %.q.9.#.8 z z z z z z z z z z g $.P.^.U.6.9 z z z z z z z z z z z z z z r b.^.^.^.n.e z z z z z u 2 2 2 2 /.",
"/.z z z z z z z z z i 6 7 g z z z z z z z z z z z z a ; % - 9 z z z z z z z z z z z z z z z l 1 ( <.[ , l z z z z z u 2 2 2 2 /.",
"/.z z z z z z z z z z z z z z z z z z z z z z z z z z z z z z z z z z z z z z z z z z z z z M x j i j z z z z z z z u 2 2 2 2 /.",
"/.z z z z z z z z z z z z z z z z z z z z z z z z z z z z z z z z z z z ] S.^.R.y.z z z z z L B z z z z z z z z z z u 2 2 2 2 /.",
"/.z z z z z C L P Z z z z z z z z :.D.J.l.' z z z z z z z z z z z z z z F.^.^.^.^.>.z z z z U P z z z z z z z z z z u 2 2 2 2 /.",
"/.z z z z C / ^ D Z v z z z z z X.!.^.^.^.c.J n z z z z z z z z z z z z ^.^.^.^.^.f.z z z z P / J z z z z N z z z z u 2 2 2 2 /.",
"/.z z z z P ^ n z z z z z z z z d.^.^.^.^.Q./ ^ M z z z z z z z z z z z T.^.^.^.^.a.z z z z S / / U L L ^ B z z z z u 2 2 2 2 /.",
"/.z z z z P L z z z z z z z z z s.^.^.^.^.E.^ / U z z z z z z z z z z z 4.^.^.^.G._ z z z z z L / / / / J z z z z z u 2 2 2 2 /.",
"/.z z z z S G z z z z z z z z z ` T.^.^.^.w.m ^ / n z z z z z z z z z z w #.8.5.) l z z z z z z B G G B z z z z z z u 2 2 2 2 /.",
"/.z z z z z N z z z z z z z z z j { e.m.3.7 z S / M z z z z z z z z z z z g 7 q l z z z z z z z z z z z z z z z z z 5 2 2 2 2 /.",
"/.z z z z z z z z z z z z z z z z h 1 > w z z n ^ z z z z z z z z z z z z z z z z z z z z z z z z z z z z z z z z z 3 2 2 2 2 /.",
"/.k z z z z z z z z z z z z z z z z z z z z z c Z z z z z z z z z z z z z z z z z z z z z z z z z z z z z z z z z p 2 2 2 2 : /.",
"/.0 z z z z z z z z z z z z z z z z z z z z z z z z z z z z z z z z z z z z z z z z z z z z z z z z z z z z z z j 3 2 2 2 2 $ /.",
"/.+ z z z z z z z z z z z z z z z z z z z z z z z z z z z z z z z z z z z z z z z z z z z z z z z z z z z z z d 3 2 2 2 2 2 . /.",
"/./.0 z z z z z z z z z z z z z z z z z z z z z z z z z z z z z z z z z z z z z z z z z z z z z z z z z k d y 2 2 2 2 2 2 & /./.",
"/././.= 2 2 2 2 2 2 2 2 2 2 2 2 2 2 2 2 2 2 2 2 2 2 2 2 2 2 2 2 2 2 2 2 2 2 2 2 2 2 2 2 2 2 2 2 2 2 2 2 2 2 2 2 2 2 2 2 * /././.",
"/./././.# < 2 2 2 2 2 2 2 2 2 2 2 2 2 2 2 2 2 2 2 2 2 2 2 2 2 2 2 2 2 2 2 2 2 2 2 2 2 2 2 2 2 2 2 2 2 2 2 2 2 2 2 2 < @ /./././.",
"/./././././.X o O O O O O O O O O O O O O O O O O O O O O O O O O O O O O O O O O O O O O O O O O O O O O O O O o   /./././././.",
"/./././././././././././././././././././././././././././././././././././././././././././././././././././././././././././././././.",
"/./././././././././././././././././././././././././././././././././././././././././././././././././././././././././././././././.",
"/./././././././././././././././././././././././././././././././././././././././././././././././././././././././././././././././."
};
