/* XPM */
static char *result[] = {
/* columns rows colors chars-per-pixel */
"64 64 112 2 ",
"   c black",
".  c #362C08",
"X  c #3A2F09",
"o  c #35241A",
"O  c #3E2A1C",
"+  c #4B3D0B",
"@  c #45301F",
"#  c #4C341E",
"$  c #4E381F",
"%  c #5D3F1C",
"&  c #422E21",
"*  c #473122",
"=  c #4A3324",
"-  c #4F3628",
";  c #543923",
":  c #503728",
">  c #543A2A",
",  c #5A3E2D",
"<  c #57401F",
"1  c #64510F",
"2  c #634A1F",
"3  c #6C4919",
"4  c #724D19",
"5  c #6A5611",
"6  c #6D5811",
"7  c #6F511D",
"8  c #755017",
"9  c #7F5616",
"0  c #705B11",
"q  c #71561F",
"w  c #765C1B",
"e  c #7B5F1D",
"r  c #7F621E",
"t  c #5E412E",
"y  c #6D4C2F",
"u  c #704C2E",
"i  c #6F512A",
"p  c #745821",
"a  c #7C5F23",
"s  c #74532D",
"d  c #7B5A2D",
"f  c #644532",
"g  c #6B4B30",
"h  c #755430",
"j  c #80571C",
"k  c #9F6B0F",
"l  c #84661E",
"z  c #8A6C1D",
"x  c #946511",
"c  c #94651F",
"v  c #9F6C19",
"b  c #967A17",
"n  c #9B7B1F",
"m  c #AF760D",
"M  c #B97D0E",
"N  c #A36E1E",
"B  c #A8721C",
"V  c #B27914",
"C  c #BA7D13",
"Z  c #865C27",
"A  c #846622",
"S  c #8E6125",
"D  c #8D6C24",
"F  c #83622C",
"G  c #89662C",
"H  c #8A6928",
"J  c #906224",
"K  c #986721",
"L  c #966C27",
"P  c #9A6921",
"I  c #916E2C",
"U  c #947325",
"Y  c #987624",
"T  c #9D7B22",
"R  c #94712A",
"E  c #9A762B",
"W  c #A37E2A",
"Q  c #A8861E",
"!  c #AC8A1D",
"~  c #BE8115",
"^  c #B18D1F",
"/  c #B6921D",
"(  c #B9951C",
")  c #BD991D",
"_  c #A58223",
"`  c #A98520",
"'  c #AC8821",
"]  c #A5802B",
"[  c #A9832A",
"{  c #AF8829",
"}  c #B08A29",
"|  c #BD9625",
" . c #BB9328",
".. c #C1830F",
"X. c #CC8A0F",
"o. c #C68613",
"O. c #CE8B10",
"+. c #D08D10",
"@. c #C29C1E",
"#. c #C6A01F",
"$. c #CAA31F",
"%. c #DDAC1E",
"&. c #E0AE1F",
"*. c #C39D20",
"=. c #C99F26",
"-. c #CEA621",
";. c #D4AB21",
":. c #D9AF23",
">. c #DCB222",
",. c #E2B623",
"<. c #E6BA24",
"1. c None",
/* pixels */
"1.1.1.1.1.1.1.1.1.1.1.1.1.1.1.1.1.1.1.1.1.1.1.1.1.1.1.1.1.1.1.1.1.1.1.1.1.1.1.1.1.1.1.1.1.1.1.1.1.1.1.1.1.1.1.1.1.1.1.1.1.1.1.1.",
"1.1.1.1.1.1.1.1.1.1.1.1.1.1.1.1.1.1.1.1.1.1.1.1.1.1.1.1.1.1.1.1.1.1.1.1.1.1.1.1.1.1.1.1.1.1.1.1.1.1.1.1.1.1.1.1.1.1.1.1.1.1.1.1.",
"1.1.1.1.1.1.1.1.1.1.1.1.1.1.1.1.1.1.1.1.1.1.1.1.1.1.1.1.1.1.1.1.1.1.1.1.1.1.1.1.1.1.1.1.1.1.1.1.1.1.1.1.1.1.1.1.1.1.1.1.1.1.1.1.",
"1.1.1.1.1.1.1.1.1.1.1.1.1.1.1.1.1.1.1.1.1.1.1.1.<.<.<.<.<.<.<.<.<.<.<.<.<.<.<.<.1.1.1.1.1.1.1.1.1.1.1.1.1.1.1.1.1.1.1.1.1.1.1.1.",
"1.1.1.1.1.1.1.1.1.1.1.1.1.1.1.1.1.1.1.1.1.<.<.<.<.<.<.<.<.<.<.<.<.<.<.<.<.<.<.<.<.<.,.1.1.1.1.1.1.1.1.1.1.1.1.1.1.1.1.1.1.1.1.1.",
"1.1.1.1.1.1.1.1.1.1.1.1.1.1.1.1.1.1.1.<.<.<.<.<.<.<.<.<.<.<.<.<.<.<.<.<.<.<.<.<.<.<.<.<.<.1.1.1.1.1.1.1.1.1.1.1.1.1.1.1.1.1.1.1.",
"1.1.1.1.1.1.1.1.1.1.1.1.1.1.1.1.1.<.<.<.<.<.<.<.<.<.<.<.<.<.<.<.<.<.<.<.<.<.<.<.<.<.<.<.<.<.,.1.1.1.1.1.1.1.1.1.1.1.1.1.1.1.1.1.",
"1.1.1.1.1.1.1.1.1.1.1.1.1.1.1.<.<.<.<.<.<.<.<.<.<.<.<.<.<.<.<.<.<.<.<.<.<.<.<.<.<.<.<.<.<.<.<.<.,.1.1.1.1.1.1.1.1.1.1.1.1.1.1.1.",
"1.1.1.1.1.1.1.1.1.1.1.1.1.<.<.<.<.<.<.<.<.<.<.<.<.<.<.<.<.<.,.,.<.<.<.<.<.<.<.<.<.<.<.<.<.<.<.<.<.<.$.1.1.1.1.1.1.1.1.1.1.1.1.1.",
"1.1.1.1.1.1.1.1.1.1.1.1.<.<.<.<.<.<.<.<.<.<.<.<.:.-.*.' Y D A a H H R _ | ;.<.<.<.<.<.<.<.<.<.<.<.<.<.:.1.1.1.1.1.1.1.1.1.1.1.1.",
"1.1.1.1.1.1.1.1.1.1.1.<.<.<.<.<.<.<.<.<.<.:.#.! R d f f f f , : f f f f f f d ] -.<.<.<.<.<.<.<.<.<.<.<.:.1.1.1.1.1.1.1.1.1.1.1.",
"1.1.1.1.1.1.1.1.1.1.<.<.<.<.<.<.<.<.<.;.) Y d f f f f f f f , : f f f f f f f f f d } >.<.<.<.<.<.<.<.<.<.>.1.1.1.1.1.1.1.1.1.1.",
"1.1.1.1.1.1.1.1.1.<.<.<.<.<.<.<.<.:.) U y f f f f f f f f f , : f f f f f f f f f f f h { <.<.<.<.<.<.<.<.<.:.1.1.1.1.1.1.1.1.1.",
"1.1.1.1.1.1.1.1.<.<.<.<.<.<.<.,.#.` s f f f f f f f f f f f , : f f f f f f f f f f f f f d -.<.<.<.<.<.<.<.<.%.1.1.1.1.1.1.1.1.",
"1.1.1.1.1.1.1.<.<.<.<.<.<.<.>.) U f f f f f f f f f f f f f , : f f f f f f f f f f f f f f f { <.<.<.<.<.<.<.<.-.1.1.1.1.1.1.1.",
"1.1.1.1.1.1.<.<.<.<.<.<.<.>.( F f f f f f f f f f f f f f f , : f f f f f f f f f f f f f f f f R <.<.<.<.<.<.<.,.| 1.1.1.1.1.1.",
"1.1.1.1.1.1.<.<.<.<.<.<.:./ d f f f f f f f f f f f f f f f , : f f f f f f f f f f f f f f f f f G ,.<.<.<.<.<.<.>.1.1.1.1.1.1.",
"1.1.1.1.1.<.<.<.<.<.<.:./ s f f f f f f f f f f f f f f f f , : f f f f f f f f f f f f f f f f f f F ,.<.<.<.<.<.<.#.1.1.1.1.1.",
"1.1.1.1.<.<.<.<.<.<.>.| a f f f f f f f f f f f f f f f f f , : f f f f f f f f f f f f f f f f f f f I <.<.<.<.<.<.,.| 1.1.1.1.",
"1.1.1.1.<.<.<.<.<.<.) D f f f f f f f f f f f f f f f f f f , - f f f f f f f f f f f f f f f f f f f f W <.<.<.<.<.<.-.1.1.1.1.",
"1.1.1.<.<.<.<.<.<.-.T f f f f f f f f f f f f f f f f f f f , : f f f f f f f f f f f f f f f f f f f f f =.<.<.<.<.<.,.) 1.1.1.",
"1.1.1.<.<.<.<.<.:./ y f f f f f f f f f f f f f f f f f f f , : f f f f f f f f f f f f f f f f f f f f f h ,.<.<.<.<.<.$.1.1.1.",
"1.1.<.<.<.<.<.<.@.H f f f f f f f f f f f f f f f f f f f f , : f f f f f f f f f f f f f f f f f f f f f f W <.<.<.<.<.>.) 1.1.",
"1.1.<.<.<.<.<.;.' f f f f f f f f f f f f f f f f f f f f f , : f f f f f f f f f f f f f f f f f f f f f f g :.<.<.<.<.<.@.1.1.",
"1.1.<.<.<.<.<.) a f f f f f f f f f f f f f f f f f f f f f , : f f f f f f f f f f f f f f f f f f f f f f f E <.<.<.<.<.-.1.1.",
"1.<.<.<.<.<.%.Q f f f f f f f f f f f f f f f f f f f f f f , : f f f f f f f f f f f f f f f f f f f f f f f f >.<.<.<.<.>.( 1.",
"1.<.<.<.<.<.#.A f f f f f f f f f f f f f f f f f f f f f f , : f f f f f f f f f f f f f f f f f f f f f f f f ] <.<.<.<.<.) 1.",
"1.<.<.<.<.,.( y f f f f f f f f f f f f f f f f f f f f f f , : f f f f f f f f f f f f f f f f f f f f f f f f d <.<.<.<.<.#.1.",
"1.<.<.<.<.;.W f f f f f f f f f f f f f f f f f f f f f f f , : f f f f f f f f f f f f f f f f f f f f f f f f f -.<.<.<.<.$.1.",
"<.<.<.<.<.#.A f f f f f f f f f f f f f f f f f f f f f g J c v P S g f f f f f f f f f f f f f f f f f f f f f f [ <.<.<.<.:.( ",
"<.<.<.<.<.) s f f f f f f f f f f f f f f f f f f f g N +.X.+.+.+.+.+.N f f f f f f f f f f f f f f f f f f f f f G <.<.<.<.:.( ",
"<.<.<.<.,./ > f f f f f f f f f f f f f f f f f f g ~ O.O.o.M M o.O.+.+.C g f f f f f f f f f f f f f f f f f f f h <.<.<.<.>.( ",
"<.<.<.<.:.Q , f f f f f f f f f f f f f f f f f g ~ +...k 3 O o & 4 C +.+.V f f f f f f f f f f f f f f f f f f f f :.<.<.<.>.| ",
"<.<.<.<.:.n , f f f f f f f f f f f f f f f f f c +.o.x * * : - f f , V +.+.j f f f f f f f f f f f f f f f f f f f -.<.<.<.<.( ",
"<.<.<.<.$.z , f f f f f f f f f f f f f f f f f o.+.m # = f , : f f f u O.+.V > f f f f f f f f f f f f f f f f f f  .<.<.<.<.( ",
"<.<.<.<.$.L , f f f f f f f f f f f f f f f f s +.X.9 & f f , : f f f f B +...; f f f f f f f f f f f f f f f f f f { <.<.<.<.( ",
"<.<.<.<.;.A , f f f f f f f f f f f f f f f f Z +.X.8 : f f t : f f f f K +...% f f f f f f f f f f f f f f f f f f ] <.<.<.<.( ",
"<.<.<.<.$.A , f f f f f f f f f f f f f f f f S +.+.j > f f , : f f f f K +...% t f f f f f f f f f f f f f f f f f ] <.<.<.<.( ",
"<.<.<.<.-.A , f f f f f f f f f f f f f f f f L &.<.<.<.<.<.<.<.<.<.<.<.<.,.%.3 t f f f f f f f f f f f f f f f f f ] <.<.<.<.( ",
"<.<.<.<.$.A , f f f f f f f f f f f f f f f f :.<.<.<.<.<.<.<.<.<.<.<.<.<.<.<.-.t f f f f f f f f f f f f f f f f f ] <.<.<.<.( ",
"<.<.<.<.%.A t f f f f f f f f f f f f f f f f <.<.<.<.<.<.<.<.<.<.<.<.<.<.<.<.-.= f f f f f f f f f f f f f f f f f ] <.<.<.<.( ",
"<.<.<.<.$.A t f f f f f f f f f f f f f f f f <.<.<.<.<.<.<.<.<.<.<.<.<.<.<.<.$.O f f f f f f f f f f f f f f f f f ] <.<.<.<.( ",
"<.<.<.<.-.A > f f f f f f f f f f f f f f f f <.<.<.<.<.<.<.<.<.<.<.<.<.<.<.<.-.* f f f f f f f f f f f f f f f f f ] <.<.<.<.( ",
"<.<.<.<.-.r t f f f f f f f f f f f f f f f f <.<.<.<.<.<.<.<.<.<.<.<.<.<.<.<.%.& f f f f f f f f f f f f f f f f f ] <.<.<.<.( ",
"<.<.<.<.-.A t f f f f f f f f f f f f f f f f <.<.<.<.<.<.,.6 X 6 <.<.<.<.<.<.$.& f f f f f f f f f f f f f f f f f ] <.<.<.<.( ",
"<.<.<.<.-.A t f f f f f f f f f f f f f f f f ,.<.<.<.<.<.5       5 <.<.<.<.<.$.& f f f f f f f f f f f f f f f f f ] <.<.<.<.( ",
"<.<.<.<.-.A t f f f f f f f f f f f f f f f f ,.<.<.<.<.<..       . <.<.<.<.<.| & f f f f f f f f f f f f f f f f f ] <.<.<.<.( ",
"<.<.<.<.-.r > f f f f f f f f f f f f f f f f { <.<.<.<.<.1       1 <.<.<.<.<.z * f f f f f f f f f f f f f f f f f ] <.<.<.<.( ",
"<.<.<.<.$.A t f f f f f f f f f f f f f f f f G <.<.<.<.<.>.+   < >.<.<.<.,.#.i > f f f f f f f f f f f f f f f f f ] <.<.<.<.( ",
"<.<.<.<.-.A t f f f f f f f f f f f f f f f f f | <.<.<.<.<.!   ! <.<.<.<.;._ O t f f f f f f f f f f f f f f f f f [ <.<.<.<.( ",
"<.<.<.<.$.A t f f f f f f f f f f f f f f f f f g ;.<.<.<.<.>.b %.,.<.<.>.( $ - f f f f f f f f f f f f f f f f f f ] <.<.<.<.( ",
"<.<.<.<.-.A > f f f f f f f f f f f f f f f f f f h -.<.<.<.<.<.<.,.<.;.! < * f f f f f f f f f f f f f f f f f f f ] >.<.<.<.( ",
"<.<.<.<.-.A t t f f f f f f f f f f f f f f f f f f f U ;.>.<.,.,.;.) r * * f f f f f f f f f f f f f f f f f f f f ] <.<.<.<.( ",
"<.<.<.<.-.A t f f f f f f f f f f f f f f f f f f f f f > p e w r 0 O @ > f f f f f f f f f f f f f f f f f f f f f ] <.<.<.<.( ",
"<.<.<.<.-.A t f f f f f f f f f f f f f f f f f f f f f f f : * = t t g f f f f f f f f f f f f f f f f f f f f f f ] <.<.<.<.( ",
"<.<.<.<.-.A t f f f f f f f f f f f f f f f f f f f f f f f t : f f f f f f f f f f f f f f f f f f f f f f f f f f ] <.<.<.<.( ",
"<.<.<.<.-.A , f f f f f f f f f f f f f f f f f f f f f f f t - f f f f f f f f f f f f f f f f f f f f f f f f f f ] <.<.<.<.| ",
"<.<.<.<.-.r , f f f f f f f f f f f f f f f f f f f f f f f > - f f f f f f f f f f f f f f f f f f f f f f f f f f ] <.<.<.>.( ",
"<.<.<.<.-.A t f f f f f f f f f f f f f f f f f f f f f f f t - f f f f f f f f f f f f f f f f f f f f f f f f f f ] <.<.<.<.( ",
"<.<.<.<.-.A > f f f f f f f f f f f f f f f f f f f f f f f t - f f f f f f f f f f f f f f f f f f f f f f f f f f ] <.<.<.>.( ",
"<.<.<.<.-.A t f f f f f f f f f f f f f f f f f f f f f f f t - f f f f f f f f f f f f f f f f f f f f f f f f f f [ <.<.>.#.) ",
"1.>.;.$.#.A t f f f f f f f f f f f f f f f f f f f f f f f t - f f f f f f f f f f f f f f f f f f f f f f f f f f E -.-.@.) 1.",
"1.1.1.1.1.1.1.1.1.1.1.1.1.1.1.1.1.1.1.1.1.1.1.1.1.1.1.1.1.1.1.1.1.1.1.1.1.1.1.1.1.1.1.1.1.1.1.1.1.1.1.1.1.1.1.1.1.1.1.1.1.1.1.1.",
"1.1.1.1.1.1.1.1.1.1.1.1.1.1.1.1.1.1.1.1.1.1.1.1.1.1.1.1.1.1.1.1.1.1.1.1.1.1.1.1.1.1.1.1.1.1.1.1.1.1.1.1.1.1.1.1.1.1.1.1.1.1.1.1."
};
