/* XPM */
static char *b0ee5c67dba34ecaeede6af9ea72180dOWYQzKJTeki2KCJY[] = {
/* columns rows colors chars-per-pixel */
"64 64 245 2 ",
"   c #0D364A",
".  c #14354C",
"X  c #15394E",
"o  c #1A3B4E",
"O  c #19364D",
"+  c #0F3853",
"@  c #143C53",
"#  c #1B3E53",
"$  c #183D57",
"%  c #213F55",
"&  c #164257",
"*  c #1C4256",
"=  c #16435B",
"-  c #1C445B",
";  c #1D495D",
":  c #1F515C",
">  c #214256",
",  c #21455B",
"<  c #23495D",
"1  c #2D4859",
"2  c #324B5A",
"3  c #385157",
"4  c #1D4761",
"5  c #1D4B62",
"6  c #1C4C69",
"7  c #174862",
"8  c #1D5269",
"9  c #1E5166",
"0  c #1E5573",
"q  c #234C63",
"w  c #2A4D63",
"e  c #234E69",
"r  c #274B67",
"t  c #334E63",
"y  c #245166",
"u  c #2A5165",
"i  c #25536B",
"p  c #2A546C",
"a  c #26596D",
"s  c #2D596E",
"d  c #335164",
"f  c #3B5365",
"g  c #34546A",
"h  c #3A556B",
"j  c #345A6E",
"k  c #3C5A6D",
"l  c #395A65",
"z  c #255572",
"x  c #2A5671",
"c  c #255A73",
"v  c #2C5B74",
"b  c #2C5E7A",
"n  c #265C7B",
"m  c #325C74",
"M  c #3C5B73",
"N  c #325E7A",
"B  c #385975",
"V  c #3E666E",
"C  c #2D6177",
"Z  c #2E617B",
"A  c #316077",
"S  c #3C6275",
"D  c #33637C",
"F  c #3B647C",
"G  c #3A6A7B",
"H  c #4D515B",
"J  c #41566A",
"K  c #425B6D",
"L  c #475864",
"P  c #435D74",
"I  c #4A5E74",
"U  c #435E7A",
"Y  c #515668",
"T  c #446275",
"R  c #4C6274",
"E  c #45647B",
"W  c #4B657C",
"Q  c #4B6A7D",
"!  c #466B79",
"~  c #52667B",
"^  c #53697C",
"/  c #5A6B7C",
"(  c #546577",
")  c #516A73",
"_  c #667678",
"`  c #71686D",
"'  c #54655F",
"]  c #897479",
"[  c #B07177",
"{  c #835464",
"}  c #D8787A",
"|  c #608071",
" . c #888D76",
".. c #A1826E",
"X. c #D38378",
"o. c #385D80",
"O. c #2F6282",
"+. c #2C6C85",
"@. c #346482",
"#. c #3B6682",
"$. c #346984",
"%. c #3B6B84",
"&. c #356B8A",
"*. c #3B6D8B",
"=. c #3A638B",
"-. c #3B718D",
";. c #37708D",
":. c #3D7593",
">. c #3B7897",
",. c #3E6F90",
"<. c #446583",
"1. c #4B6682",
"2. c #436B84",
"3. c #4C6B83",
"4. c #446F89",
"5. c #4C6E8A",
"6. c #40668D",
"7. c #536D83",
"8. c #596E83",
"9. c #536F89",
"0. c #5E6F89",
"q. c #437186",
"w. c #4C7285",
"e. c #45728C",
"r. c #4C738C",
"t. c #4D7B8B",
"y. c #557186",
"u. c #5B7285",
"i. c #54738C",
"p. c #5B758C",
"a. c #55798C",
"s. c #5C798E",
"d. c #5D7E87",
"f. c #427594",
"g. c #4E7592",
"h. c #4D7A93",
"j. c #427C9C",
"k. c #447798",
"l. c #547593",
"z. c #5A7792",
"x. c #537A94",
"c. c #5C7A93",
"v. c #557C9A",
"b. c #5A7D99",
"n. c #577699",
"m. c #476B93",
"M. c #617386",
"N. c #61768C",
"B. c #63798E",
"V. c #6B7C8C",
"C. c #637C94",
"Z. c #6A7E94",
"A. c #637F9A",
"S. c #607590",
"D. c #797C85",
"F. c #5A7EA0",
"G. c #827F92",
"H. c #C97C82",
"J. c #5B8489",
"K. c #49829B",
"L. c #55819C",
"P. c #5C829C",
"I. c #5A8396",
"U. c #4F8087",
"Y. c #658784",
"T. c #7B8485",
"R. c #648196",
"E. c #6C8195",
"W. c #65829B",
"Q. c #6B849C",
"!. c #6C899E",
"~. c #698D93",
"^. c #72869C",
"/. c #738A9E",
"(. c #748495",
"). c #739799",
"_. c #76988A",
"`. c #7DA29A",
"'. c #4885A3",
"]. c #5D85A2",
"[. c #5B88A3",
"{. c #5F96B4",
"}. c #6586A1",
"|. c #6B86A1",
" X c #6D8AA3",
".X c #678AA6",
"XX c #728DA2",
"oX c #728DA6",
"OX c #758EA5",
"+X c #738AA2",
"@X c #798EA5",
"#X c #748FA9",
"$X c #7591A6",
"%X c #7792AB",
"&X c #7991A9",
"*X c #7A93AD",
"=X c #7895A9",
"-X c #7B96B1",
";X c #7B98B1",
":X c #6599AF",
">X c #7AABB8",
",X c #6BA2B5",
"<X c #659DC0",
"1X c #6BA4C3",
"2X c #72ACC0",
"3X c #899789",
"4X c #949788",
"5X c #889694",
"6X c #8A8E8D",
"7X c #A69198",
"8X c #B19493",
"9X c #97A395",
"0X c #86A68E",
"qX c #B9B798",
"wX c #ACA795",
"eX c #8197AA",
"rX c #809AB3",
"tX c #95BAA6",
"yX c #97B8B5",
"uX c #87AFB5",
"iX c #AEB7AE",
"pX c #D8918B",
"aX c #F69D90",
"sX c #F1938E",
"dX c #D4AE9A",
"fX c #FEA89C",
"gX c #FBB39B",
"hX c #CDB6B0",
"jX c #F7B3A6",
"kX c #EDB0A3",
"lX c #93C2B8",
"zX c #B6C4B7",
"xX c #A9CEB7",
"cX c #C9CAA8",
"vX c #DBD6AC",
"bX c #D5D6B4",
"nX c #D4C8A0",
"mX c #E7D1B9",
"MX c #94BEC4",
"NX c #98C8C4",
"BX c #ADCFCC",
"VX c #B3E4F5",
"CX c #CED6CE",
"ZX c #DBE2C1",
"AX c #EAEECF",
/* pixels */
"!.XX=X$XQ.Q.XX=X*X*X%X%X-X-X-X-X XoX X}.|.+XOX X XoXoXoX%X*X@X@X-X-X-X-X%XOX+X XQ.Q.+X+X@X+X+X^.+XZ.@X@X@X@X&X+XoX+X+X+X+X@X@X@X",
"$X*X$X!. X X/.XX!.W.Q. XoX X|.W.!.Q. X%X*XrX*XOX X XoX#X%X%X@X+XoXOX#X&X&X&X&XOX&X*XeXrXeX+X+X@XZ.eX@X@X+X+X+X&X+X+X@X&X@X+X+X@X",
"rX-X%X%X-X-X%X&X/.!.$X=XXXQ.Q.Q.!./.@X@X@X^.^.Q.XX$XOX XZ.S.Z.Z.Z.Z.Q.Z.B.V.Z.Z.Z.Z.Z.^.Z.|.|. X+XA.Z.Z.+X+X X|.|.^.+X@X+X+X+X+X",
"!.C.A.}.A.|.Q.c.s.Q.XX/.Q.Q.A.!././.E.Z.Z.N.N.C.^.Q.^.Q.Q.Z.^.|.Q.Z.Z.Z.E.^.^.E.Z.(.A.Z.Z.Z.Z.+X@X@X&X#X|.|.^.|. X+X+XA.Q.Z.Z.Z.",
"c.W.I.C.R.C.z.p.z.C.S.z.c.Q. X+X+X+X X!.!.R.W.XX^.Q.Z.Z.Z.A.^.^.+X+X+X&X&XOX+X!.+XOX%X%X+XQ.Q.Z.Z.A.+X@XZ.Z.Q.Q.+X X!.A.C.S.z.p.",
" X}.!. X XW.E.Q.^.W.C.C.Z.!.Q.Q.A.!. X}.}.}.oX*X+X!.Z.S.S.S.z.C.C.C.!. XQ.A.Q.!.+X+X+XZ.Z.(./.@XZ.Z.0.S.Z.|.^.+X+X+X@X&X&X*XrXrX",
"!.W.!.!.!.$X=X!.Q.!.oX%X#XQ.C.p.p.a.s.c.C.}. X!. XQ.A.A.|..X X.X}.W.R.C.N.N.p.0.M.M.M.M.N.V.V.C.Z.Z.Z.Z.Z.Z.Z.(.(.E.D.V.(.(.(.(.",
"A.c.z.s.R.C.p.y.p.A. X#X+XQ.R.!.R.Q.W.R.I.!.!.R.C.A.|.|.|.#X-X;X;XrXrX&X/.^.E.Z.Z.V.B.M.8.0.N.N.0.N.V.Z.Z.Z.Z.V.u./ / ( / / / M.",
"z.l.b.A.|.b.z.c.C.C.B.a.p.B.Q.!.Q.W.}. X XW.a.y.0.0.0.8.8.s.C.C.C.B.B.N.N.C.Z.Q.Z.Z.S.N.N.N.p.0.8./ 8.8.N.Z.Q.Q.C.C.C.C.Z.C.N.0.",
"R.|.-X-X#X|.C.p.p.u.a.u.y.y.3.^ 9.z.R. XW.c.R.Q.|.Z.B.B.N.N.p.y.^ ^ ^ ( ~ 3.8.p.C.p.p.C.Z.C.p.7.u.N.C.C.p.8.p.C.C.Q. XoXOX+X/.Q.",
"A.}.|.W.A.c.z.p.c.s.p.p.i.y.y.p.i.c.R.C.c.i.s.R.C.S.p.C.R.R.C.c.c.i.y.8.8.u.9.8.8.p.C.!. XQ.|.W.}.}.A.C.N.0.^ ~ I ( 8.B.Z.C.C.R.",
"z.l.l.p.9.9.s.R.C.R.R.c.C.R.R.R.c.C.c.p.s.s.c.B.B.p.s.C.R.!.W.R.W.W.R.W.!.Q.C.S.y.p.N.z.p.p.A. XoX X}.W.C.A.C.u./ ^ ( ( W W W 7.",
"R.R.c.i.3.7.p.c.|.|.|.|.}.W.b.z.A.R.R.C.p.p.u.^ ^ ( ^ ^ u.u.u.p.i.z.A.Q.Q.C.p.p.p.p.8.( I I / 0.N.S.A.A.Q.R.}.}.W.R.A.C.S.8.7.~ ",
"R.c.a.i.7.7.y.y.z.z.b.b.c.z.i.z.5.l.c.z.y.7.7.7.7.Q ^ y.u.^ ^ ^ p.p.C.p.7.Q 7.7.Z.Z.Z.B.p.u.8.8.7.I ~ 0.c.c.R.W..X}.+X XQ.Z.Z.Z.",
"9.3.7.p.c.c.p.i.U E Q 7.y.w.i.b.}.]..X}.A.A.b.W.R.s.c.c.i.7.^ w.7.3.Q E P 1.7.y.p.p.p.p.C.Q.A.z.8.^ ~ 3.~ I I I R ( / 8.8.N.Z.C.",
"1.9.9.5.9.l.c.c.c.p.i.w.Q 3.p.P.].P.v.z.z.z.c.i.r.x.R.I.I.c.P.W.!.Q.C.i.y.p.p.p.z.p.i.1.W 7.p.9.9.i.p.p.7./ / / ( R L J I R E I ",
"i.5.3.1.5.w.i.l.c.z.p.7.Q Q Q ! Q 3.^ Q R W 3.1.3.w.p.8.1.! y.a.R.c.c.z.n.A.p.y.y.u.9.7.1.I W 7.z.c.R.R.C.C.Z.C.Q.Q.R.p.i.z.i.1.",
"w.i.a.b.P.x.r.l.i.3.<.1.w.3.Q 3.3.Q 3.7.) T E 3.E E 1.7.3.w.1.3.T W 3.9.0.0.y.9.W W E Q 1.9.8.^ 3.Q 1.3.^ W W Q y.7.i.c.W.b.b.b.",
"4.h.v.h.l.l.i.5.F <.w.I.}.}.P.L.P.b.b.z.w.Q 3.7.z.L.].[.P.v.x.l.3.T P 1.0.n.c.z.z.3.E ! 3.y.a.a.s.y.Q T P I I I R W ^ i.s.s.p.3.",
"h.h.x.g.r.r.r.3.w.r.L.P.P.P.P..X].}.v.w.3.w.i.i.P.].[.[.].b.b.b.l.3.U P P <.1.9.i.i.i.a.r.3.w.i.w.9.Q T P P K J f J K J k K P T ",
"[.L.l.g.g.r.5.5.g.L.W.P.i.3.1.7.3.1.E U ! Q 5.l.l.r.w.w.l.n.n.l.i.9.5.<.U M J I E 9.z.l.5.5.5.5.1.1.3.3.W E ! E W W E Q W R P I ",
"g.r.g.r.r.1.<.#.h.v.h.F B M J h g k P P E 3.l.x.1.7.u.u.7.1.1.6.<.5.l.n.i.3.M t k J U 3.i.z.n.9.3.l.c.c.z.z.c.I.W.I.i.3.7.9.7.U ",
"! T P Q <.E <.h.g.4.#.F B B B M P U P M k P U U U J H H Y L J h M <.n.z.l.i.w.w.E k h h J P M E 3.i.i.i.i.i.z.c.z.L.b.F.n.n.n.n.",
"k g h g E i.v.v.h.h.h.h.x.l.l.l.x.5.E U E P U I ` ] 8X8X] H H U 7.p.l.1.U Q a.J.a.i.y.1.E E E Q Q M h t d d j P ! 4.i.l.v.l.l.m.",
"B m B 2.2.e.h.h.e.h.L.L.L.].].[.v.v.v.L.L.I.J.5XhXdXjXkXpXH.Y U T S T M E 1.a.Q 3.3.r.i.r.4.%.S M k t w 1 t d f k f d h P P J f ",
"e.h.v.L.h.t.2.G m m F e.4.e.r.2.4.g.h.h.h.a.^ iXjXgXfXaXsXpX` h V K l K K f d d w s #.5.h.l.r.e.U M M M 3.1.! M g g l d t d f f ",
"r.r.e.e.h.e.G m j d d d t 3 t d d h t h k k 2 ` kXjXjXfXaXpX` H M P L 3 3 L T d g B F 1.m.x.h.r.g.m.g.n.b.g.4.<.<.e.Q j g M P k ",
"N F %.e.r.2.F F M S T T K f 2 1 1 1 2 2 h l 2 D.mXjXfXaXsX} 7XY 1 _ zXzXwX_ f Q <.E N B M B M <.m.g.v.F.F.n.g.g.r.r.e.q.F g B P ",
"g.h.v.x.e.%.=.@.e.h.v.x.5.F M j g j j M k d > V.iXpXaXaX} [ G.K | CXZXbXcXzX_ T m.l.5.M t 2 1 2 t j E 3.U 1.1.<.w.2.B F 2.2.%.2.",
"s s F #.N N N N N @.#.D N N F <.S m N F m j u 7.6X8XpXX.[ ` (.d.0XAXvXvXcXqX3Xl r o.#.N g t % % % w h t w w g h B N m u v %.e.e.",
"v C G A r q p m #.2.%.D #.#.D #.%.%.@.6.f.*.:X2XE.zXwX[ pX7XyXM.3XAXmXvXnXdX3XT.g o.N N M g w u u u < < q w u p x m N #.<.#.2.4.",
"a C A i q x B F %.%.D C b v v x b Z &.O.&.{.>X>XBXBX7X .` 9XBXBXzXbXbXvXnXwX| I <.6.o.x m D F #.#.F D N v i r p x m #.#.x 4 q r ",
"@.$.b z v N c p v p a 9 6 q i a D $.>.'.1X1X,XVXrXV.iX6X .6XR NXzXzXcXqXqX .' l N 6.m.=.b ;.k.k.k.k.,.O.z c b v b b a i a a q q ",
"*.*.&.&.&.Z v D v c i y i m %.%.$.+.j.<X1X1XU.I.z.M.iXCXCX5X! ! ) ' 9XcX .0X' d m b =.o.:.:.k.k.m.>.,.=.*.-.*.-.@.$.$.Z D D v i ",
";.>.>.j.j.j.j.j.k.-.Z C c s c C C Z >.'.'.;.y u 2 K CXiXCXT.> S q.V tXxXlXlXyX3   y v Z A Z C @.%.Z b b C C D $.G +.D Z @.C n v ",
">.j.'.'.j.'.K.>.$.$.$.;.$.i 7 9 0 +.'.>.n Z s < u 3 yX9XT.u.a.L.m U.xXBXlXlX| ).~.: & C y 5 @ = 5 5 y p a y 5 4 8 i 8 5 8 c D v ",
";.&.:.f.f.e.$.C Z +.D $.$.Z $.;.j.>.'.>.z C m S j > eXiXR /.i.; : 3 lXBXlXlX~.).NXZ G a c #.o.= @ @ $ $ $ 7 q - - ; 4 - @ 7 v N ",
"6 6 y s i 5 5 5 y Z %.@.n c Z ;.>.>.K.;.i x ; = u S u.W.J.~.u B V lX).J.NXNXuXU.>XI.G 8 v @.,.@.m p r e r 4 4 - - - q p q $ $ * ",
"- ; ; < ; - - q i c v i z i i 8 C $.$.5 N D 9 5 @ $ y l t.=X4.> V ).! V xX0XxX`.,XG 4 o.*.%.=.,.,.o.O.N N b x v i q ; 4 q , $   ",
"q y u y q 4 , i u e = & = 7 5 i 8 C 4 - a C a Z v ; ; : : I.; @ * l ! ! lX| | _.! a #.b x z e z 0 0 0 n b @.Z b N v x r r e q q ",
"Z =.*.@.c e z z p r e y z p i 5 a C q r - 4 v %.e.e.q.C a G 2.D : a i m J.yX! V U.a = a x $ $ = 7 9 a C $.-.-.D Z n Z Z @.$.$.@.",
"k.>.>.*.&.&.6.*.*.@.b #.%.%.D C Z C a s q 4 i v v N C A A A v N D 9 q j G t.x.%.c Z q.w $ * # < 5 a v a 8 i 8 6 7 8 v $.O.n O.O.",
">.>.:.*.&.-.j.k.f.-.-.$.C C @.-.>.-.$.C a w e i 4 i m x s D %.r e p , s q.h.h.e.2.G ; * q & * y & * > ; ; & * 7 - 4 6 b &.*.+.O.",
";.&.$.+.$.;.*.$.c z c v n O.$.Z $.Z a 9 q s v s q 4 e i D s c i 4 - * - 9 c x p ; ; < < = ; 9 y y y u u u s s v v C c z b Z @.O.",
"a a s c A D v a 9 4 5 8 c D $.$.C v i 5 5 y x v * * * * 5 ; q 4 p r s q &   7 6 p q e 5 b *.N x y c D F v y 4 ; y v m a 4 - - 6 ",
"; q y a q q q q q q c v C Z C i a a y a C C c - * o X & < y D D p x N m v m b e e e r @.e.*.o.@.C i 9 y i e 4 = @ @ @ - ; - @ X ",
"p a u q - < < < q , < p S S p - & - 4 4 i v D x q < ; u s y s G o.p 6 4 p D D D N F N x e 6 q x b Z c 8 6 5 6 q ; = & X & - - = ",
"m s i ; * - - < < , , q u y , * , < s v C c 8 6 c B N v y = - @ - p p m D j y q r 6 q i 4 q ; q i 6 i z c p p c D A A p i c v s ",
"v a y 5 r q - $ > $ - u u < * * q p A D A y 5 5 i Z *.*.%.D p * + X - j k w o . O . # # > - , r p p u e e i c A D A D N x e e 6 ",
"&.$.$.#.N b x x p p r q u < ; ; 5 y y y 4 - 4 q c Z $.$.D D D m y - # @ $ # o % O O O > , * # # - q u &   @ ; e v c z x z e e 7 ",
":.:.:.&.O.O.O.o.@.#.@.O.O.n c z a v s ; = < u s s v c p 5 4 q r u y * $ O X X @ O > q > > w w % # * - , $ # $ $ ; 4 p x N A O.b ",
":.:.@.O.o.O.O.O.O.O.+.&.&.&.&.O.b b a y q u u ; q ; ; 4 4 4 ; q p s s i 4 - q q p q $ .   . # $ * $ # # % q q q q - 4 i c v b A ",
"v z e i i z p z b @.@.&.&.&.&.&.b i 4 4 < < , , * o & & ; q y w r p m x a e 5 9 5 q 6 < 4 - # $ * > , < w , , , , , q r q 5 a m ",
"p u w w q $ q e p b @.@.b O.O.b @.v a r < # > , u < * * * > - < $ ; q p m A A v a c v i q q u u q < q s B r , - # +   . $ - q q ",
"w < , < r w q q e i v N D @.N c z a a i u w < < < < < * * * o X > , q r m B D D A p q i x p p v s s q - q v s p 4 $ X . . . # , ",
"< , * * # # $ , 4 i x p x v N b x i q q q , , , , < < > * * * * # , q , q q p a p i i i r q 4 - r p p 4 * - q y p q , , o . . O ",
"< > > > > # # * , q q q < < i g v v s s q q 4 - - q y u w < > > # o > * > * * o > 4 q q q p q & + = 4 y e 5 4 - ; ; ; $ * , % O ",
", > , - - > < w u p p ; ; u w ; < < q p p p i e i ; - < u < > % o o o > * o o o # $ , q q 4 q 4 7 4 4 q y a a a p s u u < , > # ",
"p y < 4 q p m N v a 6 = - q q q , - - < r x m m v p ; ; , < < < > * o o o O . . o # , q q w p i i a A v a 4 4 q q q u p u p y q ",
"q y p x N N c q q y 4 - & * * # * , < y v v b x i i y q < * - - > > * o o o o > o o o * $ q r p a q 4 4 r p u < & $ $ & - ; y y ",
"5 9 i s v m x i q q q q < < * o o & < y x p a a - - q a p q q i r q , $ o o > , % O . X X # $ - , - & @ # & < q w < ; * * = & ; ",
"; 5 y i i y p p a 5 < y u < > * o > < < - ; ; q i y p s c y q i x i q 6 - > * * * o O O $ X X + @ # - * & o $ # , < q y y < & & ",
"c Z m v z i x v c c c p p p q - < < w q , * & ; < y p s a x z e z v v x s s y < - # . . O # > > * , , < < * @ * $ * # * , , > > ",
"C v v c v c v c z v v b p r p u w w w w 4 - * * * ; < y i z b b n n b N v v j u w u w 1 % , w d d d < , * * & * , < , # O o > , "
};
