/* XPM */
static char *_6db06f1e81b475af3772100a0fcc4b8mirGaU5nHVTJPvN8[] = {
/* columns rows colors chars-per-pixel */
"64 64 244 2 ",
"   c #03020E",
".  c #1D0208",
"X  c #030512",
"o  c #08081A",
"O  c #17181A",
"+  c #0F1F1F",
"@  c #290A07",
"#  c #340A07",
"$  c #2C110B",
"%  c #22110A",
"&  c #240B15",
"*  c #291A17",
"=  c #361417",
"-  c #2A261B",
";  c #040C26",
":  c #0D132A",
">  c #161A27",
",  c #181D38",
"<  c #0F1131",
"1  c #271B27",
"2  c #371627",
"3  c #2B1B38",
"4  c #1C2B2A",
"5  c #192528",
"6  c #1A2837",
"7  c #1F3133",
"8  c #222E2D",
"9  c #262425",
"0  c #322324",
"q  c #25342C",
"w  c #272636",
"e  c #392638",
"r  c #2B3B3B",
"t  c #283836",
"y  c #363937",
"u  c #50131D",
"i  c #491217",
"p  c #4C1924",
"a  c #5C1C2D",
"s  c #433937",
"d  c #582735",
"f  c #682A39",
"g  c #33422E",
"h  c #354534",
"j  c #3D4C36",
"k  c #34453A",
"l  c #3C4C3B",
"z  c #384737",
"x  c #374933",
"c  c #414E3A",
"v  c #434C37",
"b  c #425037",
"n  c #44533C",
"m  c #49593F",
"M  c #49573F",
"N  c #0C1546",
"B  c #06164C",
"V  c #0B164D",
"C  c #0D1A4D",
"Z  c #0F1B43",
"A  c #121646",
"S  c #141B45",
"D  c #1A1D46",
"F  c #11174D",
"G  c #141B4D",
"H  c #1A1C4D",
"J  c #1B1649",
"K  c #0C1651",
"L  c #061951",
"P  c #0E1C51",
"I  c #091756",
"U  c #121752",
"Y  c #141C52",
"T  c #1A1D52",
"R  c #1A1E5A",
"E  c #141A5B",
"W  c #221F43",
"Q  c #211E4C",
"!  c #291F41",
"~  c #221E52",
"^  c #301E44",
"/  c #0E214D",
"(  c #092749",
")  c #1A2244",
"_  c #15224D",
"`  c #1B224D",
"'  c #1D2C4E",
"]  c #172846",
"[  c #0C364B",
"{  c #16354C",
"}  c #0C2254",
"|  c #0E255A",
" . c #092C54",
".. c #142154",
"X. c #1C2253",
"o. c #1B2A55",
"O. c #14235A",
"+. c #1B2459",
"@. c #182857",
"#. c #1B3252",
"$. c #153B54",
"%. c #19385B",
"&. c #0C3950",
"*. c #23224D",
"=. c #2C244B",
"-. c #232C4D",
";. c #292F4D",
":. c #262844",
">. c #372947",
",. c #2A3D45",
"<. c #24324A",
"1. c #2D344E",
"2. c #2A3849",
"3. c #35394C",
"4. c #222352",
"5. c #232A52",
"6. c #292E53",
"7. c #212459",
"8. c #272B59",
"9. c #243354",
"0. c #2D3255",
"q. c #27385A",
"w. c #363856",
"e. c #342B56",
"r. c #161E65",
"t. c #192963",
"y. c #193764",
"u. c #283467",
"i. c #28336D",
"p. c #4A2A48",
"a. c #51334A",
"s. c #68344B",
"d. c #632F46",
"f. c #194455",
"g. c #13424C",
"h. c #2E4046",
"j. c #334444",
"k. c #3B4C44",
"l. c #3B4D4C",
"z. c #3A4745",
"x. c #3F5043",
"c. c #28455A",
"v. c #3C4C53",
"b. c #384658",
"n. c #3D5054",
"m. c #1C4861",
"M. c #264569",
"N. c #374867",
"B. c #374776",
"V. c #3C537A",
"C. c #39576F",
"Z. c #414E44",
"A. c #554A4B",
"S. c #455442",
"D. c #495642",
"F. c #4B5B44",
"G. c #4C5C4A",
"H. c #475849",
"J. c #505F4B",
"K. c #545A4A",
"L. c #464757",
"P. c #57495B",
"I. c #445557",
"U. c #585656",
"Y. c #625A59",
"T. c #4F6147",
"R. c #52614C",
"E. c #516046",
"W. c #4E6051",
"Q. c #536354",
"!. c #566956",
"~. c #55655A",
"^. c #59665B",
"/. c #566A5C",
"(. c #596B5C",
"). c #5A6853",
"_. c #606B5D",
"`. c #49496A",
"'. c #5B4C67",
"]. c #485467",
"[. c #575768",
"{. c #4A5C7D",
"}. c #475777",
"|. c #595B71",
" X c #625872",
".X c #635C63",
"XX c #4E6064",
"oX c #5A6B63",
"OX c #5B6C6D",
"+X c #576769",
"@X c #5D716E",
"#X c #5D6E73",
"$X c #5B6C7C",
"%X c #566374",
"&X c #5E7178",
"*X c #4A6176",
"=X c #626C67",
"-X c #697567",
";X c #62737C",
":X c #697373",
">X c #667171",
",X c #77836F",
"<X c #86947A",
"1X c #3E5E85",
"2X c #414987",
"3X c #455886",
"4X c #515D85",
"5X c #4A549A",
"6X c #454D93",
"7X c #605E8F",
"8X c #47618B",
"9X c #596985",
"0X c #5F7189",
"qX c #5E7185",
"wX c #59679B",
"eX c #636E8A",
"rX c #637483",
"tX c #62728B",
"yX c #6A7A89",
"uX c #687A96",
"iX c #6C7199",
"pX c #5259A3",
"aX c #5A6AA6",
"sX c #7079AB",
"dX c #6C76B1",
"fX c #737BC7",
"gX c #738597",
"hX c #7584B8",
"jX c #7A89C4",
"kX c #7B85D2",
"lX c #A3B190",
"zX c #8794B8",
"xX c #9EAAA6",
"cX c #95A485",
"vX c #B6C4AB",
"bX c #C9D9AD",
"nX c #D2E0BC",
"mX c #8595C6",
"MX c #8E9BD7",
"NX c #8D93D6",
"BX c #909DE4",
"VX c #A7B3EE",
"CX c #99A4E6",
"ZX c #ECFBCE",
/* pixels */
"N A A N A A A J H A A J H J G S G S J J H J J H T J G F G Y G H G H G J S S ) H H H ~ T ~ T Q T H T T Y U T T U T T U J U J U G ",
"N N N A Z A A A G J S J J G J A S G G H H H H H H G G G G Y U T G T G J _ H D G H H ~ ~ ~ ~ T H T Y U Y U J J U E J J T T G G F ",
"N N N N A A A S S G J S G J H A H G H H H H T H H H G F G F U T T T T U G Y G G T H T T T ~ H Q T Y T U U T U T T E T T Y J Y J ",
"N N N N N A A G J H H H J H H J J J H H H H J T G G F F F G G Y T F i.u.Y Y T Y T T ~ ~ T H H T H T Y T T U T T T J T U T Y T Y ",
"N N < B B N Z A G _ X.H H H H J J H H H H H J G U G F F Y F U Y T Y G N F T C T H T X.T Q H ` H Y T Y Y U T T U T ~ T T T T U T ",
"N N B B B N N S G H H H G H H H H H H H H T T H G G F F C Y G Y Y A T ..G H T Y T 4.4.4.4.` ` T Y Y T U U U T T E E T T T T T T ",
"B B N , N Z C _ A G H H H H J T H 4.~ ~ ~ T T Y U G F C C K Y Y T G G G S _ X...7.8.5.5.5.4.X.` T Y U T T U T T ~ E T R T R T U ",
"B B B B N B C C A G H H ~ H H T H *.T T ~ H T J T U G K U U Y Y P Y Y A _ G ) 5.6.6.;.;.0.5.4.X.T Y Y T 7.T U R T T T T R T R T ",
"N B N B N C C C G G H Y H T Q T 4.T Q ~ T T H T U Y P C G Y U G U Y P Y H _ 5.9.;.3.b.b.<.0.8.T T 8.u.+.Y Y E T E U U R T T T T ",
"B B B C C C C / G ..H X.X.` H ~ Q ~ 4.Q ~ H T Y Y Y Y Y U U Y Y U T Y G Y 5.5.<.I.>X=X=X[.:.' B.i.7.T Y Y T T Y E T T E R T T E ",
"N C N C C C C C C G G Y T X.X.Q Q 4.4.Q T T H Y T G Y Y Y U T U Y Y Y G X.5.;.L.-X-X-X-X-X>XiXN.X.Y Y T Y U E E U U R T T E T Y ",
"N C G C / C G C G ...._ T T H X.~ 4.~ 4.4.T T H U Y Y G Y T U T H Y F G X.X.1.%X-X<XbXlXvXxX$X4.X.T Y Y Y T T E T E T E T T T Y ",
"Z C G C G C C C G G H ..H T 4.H 4.~ *.~ T T T G G U G Y Y T J G J G G A 5.6.1.=X<XnXZXZXcX=X,.;.8.X.G G Y T E P U P Y U P Y P Y ",
"G A C G C C G P G } G H T ` *.T ~ 4.~ Q T T J Y G G Y G G T T H T G H H 4.5.1.+X_.lXZXbX<X-Xb.;.X.H Y T Y Y P Y E E P Y Y Y Y Y ",
"G G G G C G G C P Y Y X.H T T X.4.Q 4.~ ~ H U H U G G G J G H T T U H 4.' -.;.[.-X<XlX-X,X:X1.*.o.H G Y Y Y P E P P P Y Y P } Y ",
"H H G G G ..C G P G Y H ..T 4.H ~ 4.X.Q ~ H H G G G H U T H T T T R T H 4.6.6.w.=X:X=X>X>XL.;.8.` Y H G Y Y U P P Y P Y } P Y P ",
"J Y H G G F G G G _ Y .._ H X.X.X.T 4.Q 4.Q H G G T Y Y Y X.T Q ~ T ~ H 4.8.0.0.w.].|.].b.1.-.o.H Y Y Y Y Y P P P P P Y ....Y Y ",
"G T G H G G G H G H ..H H _ ` X.X.4.4.Q Q Q H H G G T H H T ~ ~ ~ H 4.4.` ` 4.0.6.0.0.6.6.5.-.' _ T ..Y P P P P P P Y } P ....P ",
"H T G T Y H Y G Y X.X.Y .._ X...X.4.~ ~ ~ ~ ~ H J H H H ..T ~ ~ Q ~ *.X.T 8.4.5.6.6.e.0.6.4.4.` X...Y P P ..P P P Y Y P ..Y H Y ",
"T H T H Y Y Y Y Y H ..` Y H H _ H X.4.~ ~ ~ ~ ~ Q H ` H ` 4.4.~ 4.` H T 4.0.5.*.5.=.5.5.-.` H X.Y Y Y ..Y ..P Y Y } E ..Y Y ..Y ",
"H H T Y T Y Y H Y Y ....Y _ G G _ T ~ ~ ~ ~ R R T H H ` ` 4.~ =.4.H 4.X.X.5.X.5.4.4.` *.4.X.+.X.X...H ..P ..Y } P Y ..Y Y T Y ..",
"G H X.X.T H ..Y Y ....T Y G .._ _ T ~ ~ 7.~ T T T ~ T ` *.4.=.~ Q *.4.` ` X.T X.X.*.4.8.4.T ..X.X.....Y ..Y Y P Y ..Y ..Y ..T T ",
"Y Y Y Y H ..Y Y T Y ..Y ..Y _ Y H T ~ 7.~ X.T T R T ..X.X.4.4.~ H X.X.H H X.X.X.4.X.X.X.4.7.+.+.Y ..Y ..P ..P Y E Y P E Y Y ..T ",
"G G H Y Y T Y Y Y Y Y Y P _ Y ..X.T ~ ~ 4.T 4.T ~ R 4.X.X.` 4.~ 4.X.H ..X.T ....X.X.4.4.4.+.T ......_ Y ..Y Y Y Y P Y Y Y Y T T ",
"G G T Y Y U T Y T T E Y Y G Y Y _ Y T H T ` ` H T T T ` 4.4.4.4.H X.Y Y T Y P Y X...T X.X.X.T T Y ..Y ..P ..Y Y P P Y K Y Y Y U ",
"Y Y T G Y T T T Y Y Y Y P Y P Y G _ T *.` H H H Q H ` ` Q ~ ` X.X.Y G Y P Y O.T ..Y X.T H Y ........P P Y Y Y U U P F U C P Y P ",
"G H Y G H Y T U Y Y Y Y Y P Y Y Y H H H T Y H H D :.-.-.4.~ 4.H T Y Y U P K P Y ..P G Y _ .._ C Y Y Y P P Y Y P C V K K V K K V ",
"G G T Y Y Y T Y Y Y Y Y F Y P Y Y T H H +.....H 6 <.2.;.Q Q 4.Y Y C Y C K O.P ..Y ...._ Y H A Y P Y Y Y P Y U P C V V V V V L B ",
"G T Y H H Y T T G U U Y G U Y P E T T Y P Y G S ) t 6 ' :.` H H Y G C V K B B V P Y ..G G Y C ..Y Y Y Y U T U U K V I B B L B L ",
"H H T H G T Y T Y T H U Y G Y Y T E T H H H ^ >.w w w >.>.^ Q J G @.N B } O.O.B P C Y P ....C ..Y Y Y Y U T Y U K V K B L B B L ",
"H T H T T H Y T T T U Y Y Y Y Y } Y H H :.>.p.d.s.d.d d s.s.a.! ) V 8.wXhXjXmXmX1X..P ..P ..Y P P Y Y Y T U U U K K K B L L L L ",
"Y T T H T T J U U T T Y U Y H G _ _ ..D 3 2 i u a f a p u a d.p.J H B.9X8X3XwXdXMXB.P O.G C ..@.E T T E U U U U F V B L L L L L ",
"T T T T T H H H T U U U U G H X.T ..H *.w & # # i p # # i u p p.D X.`.c.b.b.N.V.aXwXP P Y ..G ..T R T T U E T U U U K K C K V P ",
"H U T T Q ~ J H U R ~ U R T G H T T T H 3 & @ # # # @ # # # 2 e D u.}.].v.N.C.{.aXjXt.O.o.X.Y T T T R T ~ E E T U U U U K G C P ",
"S J J ~ ~ J H H T R K 6XdXr.T T T T ..) w 1 $ $ $ $ $ @ % $ 2 3 N B.3XN.B.B.B.2XaXkXi.I Z H X.T T T T R E T U Y E U U U C P P P ",
"S S T T T J D H E E r.pXfXr.K X.X.X._ _ 3 1 0 * * $ * - * 0 3 :.4XmXzXzXmXhXjXjXkXBXBXNX3X_ ..+.R ~ E T T E T E U U U U P P P P ",
"H H Y T T Q J H R E r.pX6XI E ..Y X._ _ S =.A.s s s y y v U.L.|.$Xv.L.].eXzXmXNXMXNXCXVXCXO.+...T R T Y E T T T T U U Y Y Y P P ",
"H H T T Q H H H T E t.kX5XI O.Y N .._ G G 0. X.XY.K.Y.Y.U.=XP.w.>.5 O 9 w e `.7XwXsXsXdX3XO.O.+.T T Y T T T E Y E Y E U P P P P ",
"T U T T H T T Y Y E i.fXi.Y ..T T T H G J =.a.Y.Y.M A.Y.U.U.3.W *.3 1 9 0 1 1 1 w :.) _ A ....O.T Y T Y U E T U Y U P K P C V C ",
"U J T T T T ` Y G i.5X5Xt...Y U T J H H T J =.Y.P.A.A.Y.U.p.W 8.4.=.w 1 * - - * 5 w ) ] X.Y O.Y O.Y ..Y T U T Y Y U U Y K P P P ",
"H A G T T T G D ) ..pXfXr.E T Y T U G T T Y *.=.'.P.P.'.e.~ 4.7.7.8.:.3 * - - 9 w ) X..._ _ ......Y ..P P Y Y Y Y Y C C P K C P ",
"A ` _ H H G H ) ) A 1XdXE ~ T T T T H Y Y ..T :.`.'.'. Xe.=.7.+.X.4.=.:.> 9 9 8 ) Y ..} ( _ ..P Y } Y ..Y Y Y Y T U Y P K G K C ",
"S _ A G X.G ` ) H T U R ~ ~ U J Y ....../ ..` ) w P.a.3 e.~ R ..X.X.X.:.> O O 6 X.O.} } / } } } } P Y Y P Y Y Y Y ..Y P P G C C ",
"_ H G ....C H H T N < < J ~ ~ ~ Y Y T ....@.X.6 L.e e '.'.J 7.+.o.X.X.H o     : _ | I } }  .| ..P } } P ..O.Y T Y E Y Y Y } Y P ",
"H _ _ ` G G ` G T ) ; < D H H X.Y Y T E ....X.W 3 2 2 2 >.=.8.` ` X.Q W o     > ] C / } }  .| | ..| ....Y O...Y O.T ..T ..G } ..",
"G A A _ G _ ` X.T ` < ; D X.~ U H T T R R O.R =.& . . . 3 =.*.X.X.` ` :.o o X : ] ..} | | | | | | O.| ..O...T ..T T O...........",
"S ) o.S _ _ _ X.` D ] , 0...T +.Y Y T O.E O.+.Q 1 @ @ & ^ ~ 4.@.o.o.X.` o o o , o...| | | | O...} } } } ..Y ..O.O.+.+.X...@.....",
": 3.`.Z C C ..C _ _ S ) 5.X.G G S _ G Y ..T _ D w w & e ! H X.X..._ ..) ; ; o < ] P } } L } _ C } } C G ..@.+.+.X.+.+.@.X.o...@.",
"- k.].u.t.y.i.y.| @.q.' _ o.<.' [ { ' o.9.q.q.o.w.`.3.].0.9.9.q.9.5.q.q.; , ; , <.o.#.9.#.#.#.{ o.#.%.o....._ _ o.X.o.o.+.X.@.+.",
"l S.].{.3X1X8X1XV.3XuX{.N.}.9X$XqXqX0X0X0X0XtX0X9X}.0X{.tX0XtXuXtXyXqXtX<.v.{ }.tXqXrXtXtXqXqXqXuXtXsXuXuX0XV.q.' _ o.X.o.o.o.o.",
"t 7 { q.$.$.f.m.f.%.{.{.5X6X*X;XqXqX$XgXtXrX%X%X].%X*X$XqX$X&X$XrXqX$X%Xn.}.].&X$X$X$XrX;XrXrXyXgX;XyXyXyXgXgXgX9X}.N.q.5.] _ 5.",
"n.h.q.c.[ g.g.g.$.&.C.3XhXwXn.OX+XXX~.+X+X].I.l.h.h.L.v.n.v.n.n.I.v.n.v.j.I.I.XXOX@X@X@X;X;X&X&X@X@X@X@X#X#X;X&XyXyXyXyXtX*Xw.] ",
"}.N.%.#.c.f.f.&.f.{ M.8XhX{.b.I.l.k.k.k.l.k.j.k.x.l.k.l.k.k.k.l.k.l H.k.l k.W.oX~.(.oX(.oXoX(.(.Q.!./.(.oXoX+XOX+X>X#X&X;XyX;X%X",
"*X8X{ [ &.&.[ &.f.#.B.hX*X<.t y k k h k z k l x.l l k l k.l l l l x.z x.l l l !.W.Q.Q.!.!././.(.!.!.Q.^./.~.~.oX+X+XOX#XOXOX>X;X",
"N.N.{ &.M.y.m.&.M.%.y.{.2.r j.k k k z k z z z l z l x z z x z x.l z.k.l S.z.H./.~./././.~.~.^.^.!.(.!.Q.Q.Q.~.~.Q.~.~.I.~.+X+X^.",
"c.{ 7 f.y. .&.f.%. .y.f.5 t y k g g g g g z l F.z h z g h x x l k.l l z.z.H.^.^.~.Q.W.~.~.^.~.~./.oX^.Q.~.~.~.W.~.~.~.J.Q.~.U.~.",
"n.g.6 @.M.( f.[ %.( q.b.7 q l x z z h l D.F.G.G.j h g g g x g z h x c S.G.).Q.Q.R.G.R.Q.J.~.^.Q.~.~.^.~.~.~.~.(.^.Q.~./.W.W.W.W.",
"k.7 , 6 #.q.M.q.c.h.] { h.q T.T.F.F.F.D.S.D.G.F.F.m b b c j c M n D.R.R.J.G.J.J.Q.R.J.R.G.D.G.Q.~.U.~.Q.J.Q.W.~.~.J./.W.W./.H.G.",
"z.q r r t ,.,.,.h.,.6 6 8 t S.n F.M D.D.D.D.F.S.F.K.F.K.E.F.T.F.K.F.F.F.F.F.F.F.R.R.F.R.).K.G.K.G.G.G.R.G.G./.W.J.Q.G.G.H.W.T.H.",
"z.8 t k y ,.t t k t ,.7 4 l S.S.l l n M n n M n m m n n n n m m F.M F.F.M F.F.J.F.F.F.D.F.F.H.S.F.G.D.G.W.H.G.n H.H.S.H.x.H.W.x.",
"z.5 4 r k t r r k j.j.4 j.k S.x.n n n S.b j m T.b m m m m m m m m m T.m F.F.m F.F.E.E.D.n F.F.m v m ).n m E.M F.F.c Q.G.H.W.S.H.",
"t > 4 8 q 4 q t 4 g j.4 Z.k.x.S.l j l n n n m T.m n m j j m m T.m m m m m F.m T.m F.F.F.M F.K.n b E.).n n F.v M D.c R.D.S.F.S.S.",
"8 + 4 6 8 8 8 4 8 k 3.q h l l l l l l D.n l n j n n n j l m j n b m m n m m m T.F.T.J.D.c n m K.m b b b F.n j v l n v c c c F.l ",
"5 > 5 6 w > 5 5 5 4 4 8 k j n j z l n n l l j j l m j l m j m j n m n n T.m j T.n E.F.D.F.F.F.E.n b b b b b j v j S.l l S.G.D.n "
};
