/* XPM */
static char *_2c2f49f1fb94259a02cff5b75d4518boEYTRxzLzzf1Qbbi[] = {
/* columns rows colors chars-per-pixel */
"64 64 256 2 ",
"   c #352812",
".  c #3C2B23",
"X  c #28190C",
"o  c #4B3718",
"O  c #45342A",
"+  c #544319",
"@  c #56452E",
"#  c #725430",
"$  c #756335",
"%  c #536023",
"&  c #75674A",
"*  c #6B5A49",
"=  c #345D19",
"-  c #896B37",
";  c #A76032",
":  c #8E724F",
">  c #B4714E",
",  c #9D6D58",
"<  c #C57D5B",
"1  c #528634",
"2  c #638D4A",
"3  c #93953C",
"4  c #A98536",
"5  c #B78732",
"6  c #D4AC2C",
"7  c #FBDE2E",
"8  c #FCDE33",
"9  c #FEDE3C",
"0  c #F6DB37",
"q  c #EAC535",
"w  c #FEE134",
"e  c #FEED36",
"r  c #FEE33B",
"t  c #FEEC3B",
"y  c #F7E138",
"u  c #FFF13A",
"i  c #FAE42F",
"p  c #89954C",
"a  c #929152",
"s  c #B79558",
"d  c #AA8E53",
"f  c #8BA757",
"g  c #96A85A",
"h  c #9BB55E",
"j  c #B0B255",
"k  c #94906B",
"l  c #AA946B",
"z  c #97AA63",
"x  c #96B667",
"c  c #9ABA76",
"v  c #8AA66B",
"b  c #B7A866",
"n  c #B7A575",
"m  c #ADB270",
"M  c #C8945A",
"N  c #D09254",
"B  c #D9A756",
"V  c #D0B24F",
"C  c #EDBB5C",
"Z  c #EAB24F",
"A  c #D2936D",
"S  c #CCA667",
"D  c #D6AA6C",
"F  c #D8A875",
"G  c #C8B678",
"H  c #D7B578",
"J  c #CCAA73",
"K  c #E7AC67",
"L  c #E7B766",
"P  c #F2BC64",
"I  c #E7B876",
"U  c #F2BB79",
"Y  c #E7AC79",
"T  c #E59A7B",
"R  c #9BC579",
"E  c #ACC15E",
"W  c #D0CC53",
"Q  c #FCDC45",
"!  c #FEDC4B",
"~  c #F5D546",
"^  c #FBD858",
"/  c #ECCB52",
"(  c #FEE243",
")  c #FDEC42",
"_  c #FDEA4B",
"`  c #FAE34B",
"'  c #FDF345",
"]  c #FDE453",
"[  c #FCE759",
"{  c #F9F255",
"}  c #EDE24F",
"|  c #D7C877",
" . c #EBC668",
".. c #FCCB6C",
"X. c #F8C767",
"o. c #FDD966",
"O. c #FCCD72",
"+. c #F8C676",
"@. c #FCD475",
"#. c #FED976",
"$. c #FED67B",
"%. c #FDD97C",
"&. c #F4D873",
"*. c #E7D071",
"=. c #FBE467",
"-. c #F8E477",
";. c #F0EB6E",
":. c #8F998F",
">. c #A59984",
",. c #99B48E",
"<. c #B4AA8F",
"1. c #9DBEB2",
"2. c #B1B6B2",
"3. c #C6B686",
"4. c #D7BA85",
"5. c #CDAC8C",
"6. c #E9A88A",
"7. c #F3B68F",
"8. c #F6BBA7",
"9. c #EAB6A1",
"0. c #CEBAA2",
"q. c #9AC28F",
"w. c #AFCF8B",
"e. c #9DC7AB",
"r. c #A8C9B2",
"t. c #D8C688",
"y. c #DBC694",
"u. c #C9C989",
"i. c #E6CA89",
"p. c #F7C687",
"a. c #E8D488",
"s. c #FEDC83",
"d. c #FDDE8B",
"f. c #F6D787",
"g. c #E8CD96",
"h. c #FACC99",
"j. c #EAD492",
"k. c #EAD698",
"l. c #F4DB94",
"z. c #FCDC93",
"x. c #FCDD9C",
"c. c #F7D896",
"v. c #FEE18D",
"b. c #FCE287",
"n. c #E5E49B",
"m. c #FEE493",
"M. c #FDE59B",
"N. c #FEEA9D",
"B. c #F7E599",
"V. c #F3EE92",
"C. c #D6C8A5",
"Z. c #D3CEAF",
"A. c #FAC9A7",
"S. c #E7D6AA",
"D. c #F9D7A6",
"F. c #FCC8B5",
"G. c #EBDDB3",
"H. c #E6DCB4",
"J. c #FEDAB9",
"K. c #ECC7B9",
"L. c #D9F1AD",
"P. c #EDE4A8",
"I. c #F5E4A5",
"U. c #FCE5A2",
"Y. c #FEECA4",
"T. c #FDE6AA",
"R. c #FEEDAB",
"E. c #F4E9AA",
"W. c #FEF2A5",
"Q. c #FEF2AC",
"!. c #FEEDB3",
"~. c #F8E7B7",
"^. c #FEF2B4",
"/. c #FDF4BC",
"(. c #FDFABD",
"). c #F6F3BA",
"_. c #ECEBB8",
"`. c #87AAEF",
"'. c #95B8ED",
"]. c #87AAF3",
"[. c #89ACF5",
"{. c #8CADFA",
"}. c #87ABF9",
"|. c #89B1F6",
" X c #8CB3FC",
".X c #8CBBFC",
"XX c #8AB6F7",
"oX c #91B2FF",
"OX c #91B7FF",
"+X c #91B5FE",
"@X c #91B5FB",
"#X c #91B9FF",
"$X c #92BDFE",
"%X c #94B7F4",
"&X c #8FAFEE",
"*X c #A4BEEC",
"=X c #99C7DB",
"-X c #9EC9C6",
";X c #A5D2CC",
":X c #B2D0D3",
">X c #97C4E7",
",X c #8DC2FD",
"<X c #8FC3F5",
"1X c #93C3FD",
"2X c #94CBFD",
"3X c #9ACCFD",
"4X c #99C7F6",
"5X c #9BD3FE",
"6X c #98D3F7",
"7X c #A4D5EB",
"8X c #A5CAF6",
"9X c #A7D7FA",
"0X c #B5DDFD",
"qX c #B7D7FA",
"wX c #ACCCF4",
"eX c #BAE2FC",
"rX c #D3D8CD",
"tX c #F2D5C7",
"yX c #E7E6C7",
"uX c #FBE9C4",
"iX c #FEFAC3",
"pX c #F9F8C8",
"aX c #F8F7D7",
"sX c #EDEED2",
"dX c #C3DDFF",
"fX c #C3D9E4",
"gX c #E7DFE6",
"hX c #DDE7E8",
"jX c #C5E5FF",
"kX c #CCE5FE",
"lX c #CCEAFF",
"zX c #C4E1F4",
"xX c #DCEAF5",
"cX c #D5E5FD",
"vX c #D9E5FD",
"bX c #D4EBFE",
"nX c #DBECFD",
"mX c #D7E7F6",
"MX c #D4F0FF",
"NX c #DDF1FE",
"BX c #DDFBFF",
"VX c #E4EAEA",
"CX c #ECF5E9",
"ZX c #F6FAE9",
"AX c #E2EDFD",
"SX c #E7EEF8",
"DX c #E3F3FE",
"FX c #EBF4FE",
"GX c #EDFAFE",
"HX c #E3F6F9",
"JX c #F1F6FE",
"KX c #F3FBFE",
"LX c #FAFEFD",
"PX c #F4FBF6",
"IX c #F1E9E6",
"UX c #DFE4CE",
/* pixels */
"oXoXoXoXoXoXoXoXoXoX{.oX{.{.{.oX{.{.@X{.@X{.oX{.{.{.{.{.{.{.{.{.{.[.{.{.{.}.[.`.`.].}.}.[.[.[.`.`.[.`.[.].`.[.].].`.`.`.`.].`.`.",
"oXoXoXoXoXoXoXoXoXoXoXoXoXoX{.oXoX{.{.{.oX{.{.oXoX{.{.{.{.{.{.{.{.[.{.{.{.{.[.[.[.[.}.}.[.[.[.[.[.[.[.].].].`.[.].].`.`.`.`.`.`.",
"+X+X+X+XoXoX+X+XoXoXoXoXoXoXoXoXoXoXoX{.{.{. X{.{.{.{.oX{.{.{.{.{.{.{.{.{.{.{.{.{.}.{.[.[.`.[.`.{.].[.].].[.].].].].].].].].`.`.",
"+X+X+X+X+XoX+X+XoXoXoXoXoXoXoXoXoX XoX XoXoX{. XoX{.oX{.oX{.|.{.{.[.{.{.{.{.{.{.}.{.{.{.{.{.{.{.[.{.].[.[.[.].].].].].`.].`.].`.",
"+X+X+X+X+X+X+X+X+XoXoX.XoXoXoXoX X XoX X X X{. XoX{.oX{. X X{. XXX|.[.[.{.oX{.[.{.[.{.{.}.}.}.|.[.{.[.[.}.[.}.].].].}.}.].].].].",
"+X+X#X+X+X+X+X+X+X+X+X+XoXoXoXoX+XoX+X XoXoX X XoX X X XoX{.{. X|.[.oXoX{.{.{.&X&X[.{.@X{. X}.}.[.[.[.[.[.[.].}.].}.].].`.].].].",
"#X+X#X+X+X#X+X+X+X#X+X+X+X.X+X+X+X.X X.XoX.X.X XXX|.@X{. X XoX{.oXoXoXoX&X`.&X'.'.&X].[.{. X X|.{.[.{.[.}.|.}.}.].}.}.].].].].].",
"#X#X#X#X+X+X#X#X#X+X#X+X+X+X+X+X.X+X+X+X+XoX@X.X@X.X@X.XoXoXoXoX@X&X&X%X*XdXcXvXjXqX8X X X}.|.|.{.{.{.{.{.}.|.|.[.}.].}.}.}.].}.",
"#X#X#X#X#X#X#X#X#X#X#X#X#X.X+X#X+X#X+X.X+X+X@X@X@X+X.XoX+X@X+X&X*XqXkXvXDXDXDXDXnXbXMXqX%X X X{.XX.X}..X}..X}.|.|.|.}.}.|.}.XX}.",
"$X$X$X#X#X#X$X#X#X#X#X#X#X#X#X#X+X.X#X+X#X+X#X#X#X.X+X+X+X+X'.8XbXGXGXGXFXKXGXDXNXbXbXjX%X&X{. X X}..X}.}.}..X}.|.|.XXXX|.|.}.XX",
"$X$X$X$X1X$X$X$X$X$X$X.X.X$X.X#X.X#X.X#X#X#X#X#X.X X+X+X&X'.>XbXGXKXGXGXJXJXFXSXhXbXbXdX@X X X X}..X.X|..XXXXX.X X|.|.}.XX}.XXXX",
"#X8X1X$X$X$X$X$X$X$X$X$X$X#X$X$X$X$X#X#X#X#X%X#X#X+X.X.X#X'.9XHXGXFXPXJXKXJXKXDXxXbXlXwX|. X.X XXXXX}..X|..X}..X|. XXXXX}.XXXX].",
"$X1X$X1X1X$X1X$X$X$X1X$X$X$X$X.X$X$X$X$X$X$X$X.X.X.X#X X$X'.wXBXGXGXPXKXLXKXKXGXDXbXqX%XoX{..X XXXXXXXXX.X}..X}.XXXXXXXXXXXX.X}.",
"1X1X1X$X$X1X$X1X1X1X$X$X$X1X$X1X,X$X$X$X#X$X$X.X.X$X$X.X%X%X4XkXHXGXPXLXLXKXKXKXNXbXqX&XoX.X.X.X.XXX.X X.X}..X.XXXXXXXXXXXXXXXXX",
"1X$X1X1X$X1X1X1X1X1X1X$X1X$X$X1X$X,X1X$X$X1X<X<X.X.X1X$X#X$X&X8XDXKXKXKXKXJXJXFXDXNXlX8X@X#X.X.X.X.X.X.X.X.X.X.XXX.XXXXX.XXXXXXX",
"1X1X8X1X1X1X1X$X1X1X1X$X1X1X1X1X,X1X1X$X1X$X'.>X=X=X=X>X'.'.8X=XnXFXJXJXJXJXFXFXNXbXMX4X%X#X.X.X.X.X.X X.X.X.XXX.X.X.X.XXXXXXX.X",
"8X8X1X1X1X$X1X3X3X1X1X$X1X1X1X1X1X1X1X,X1X<X=X-Xe.,.,.e.1.zXBXlXnXDXFXKXJXSXSXAXbXbXeX%X$X.X,X.X.XXX%X1X.X.X.X.X.X.XXX,XXXXX,X.X",
"1X$X1X3X8X3X1X1X1X2X3X1X1X3X1X1X1X1X1X1X4X>X-Xr.c c c v v r.CXCXyXsXCXLXKXLXJXFXnXbXqX'.1X.X.X1X,X.X<XXX.X,X,X.X.X,X.X.X,XXX,XXX",
"8X2X2X2X1X1X1X3X1X1X2X1X1X1X1X3X1X1X1X4X>X-Xe.R R f f p k v u.V.-.n.aXPXLXJXKXGXFXNXlXqX8X%X1X#X,X,X,X1X,X.X,X,X,X.X,X.X,XXX,X.X",
"9X3X2X3X2X3X1X2X2X1X3X3X3X3X1X1X3X3X2X4X>Xr.,.g z g a p p a *.{ } { E.aXLXJXGXKXGXFXGXNX8X'.1X1X1X,X.X,X,X,X,X,X,X.X.X,X,X,X,X,X",
"9X6X4X3X2X2X2X5X3X3X3X4X5X2X2X2X<X6X<X>X;Xe.v f p f p p 3 j ;.{ { } ;.W.ZXKXGXGXFXFXvXvXqXwX8X%X.X1X,X,X,X2X<X,X,X,X,X,X<X,X,X,X",
"wX4X8X6X3X5X2X2X5X3X4X4X2X2X2X2X2X6X7X;Xe.q.c x f 3 p 3 W ;.{ ' t ( ` ;.pXHXHXJXKXJXAXxXnXMXdX9X4X4X1X1X2X<X<X,X,X,X2X,X,X<X,X,X",
"MXjXqX4X3X5X5X5X3X3X3X3X5X2X5X5X6X=Xe.q.R x f x f h E E } { ' u ' ) ) } *._.CXKXLXJXJXFXxXxXMXMXkXqX>X<X2X,X2X2X2X,X,X,X,X,X<X,X",
"NXNXbXjX9X8X8X5X8X5X5X3X5X5X6X6X7X;Xw.x f f h p f h E W { { ' u t ' t _ [ V.pXZXPXKXJXJXHXDXDXNXbXlX0X4X<X2X2X<X2X2X2X2X<X2X2X<X",
"NXnXnXnXbXlX0X8X5X5X5X5X6X6X6X6X;X,.x h f f z p p 3 W { { u u u u u u ) _ =.B.aXZXGXKXGXSXDXnXbXbXbXMX0X4X4X2X2X2X2X,X2X2X<X2X6X",
"nXmXxXnXDXDXlX0X9X5X5X5X5X5X5X7Xr.,.z z x g g d s *.=.{ ' ' u u u u u u ) ] ;.W.ZXPXGXHXDXSXmXnXbXnXlXjX8X3X2X2X2X2X6X<X2X2X2X<X",
"DXnXxXvXnXDXNXlXeX9X5X5X5X5X0X7Xr.,.m n k d P.t.V =.{ _ ) t w i i w e r t ( ] ;.).ZXPXFXGXHXDXbXNXbXbXkXwX8X2X5X6X6X6X2X6X,X6X2X",
"FXDXAXnXxXnXbXbXlXqX6X9X9X5X9X7X:X,.l C.n a 9.t.$.o.[ ( 0 7 7 w i 7 7 0 8 7 y } V.).ZXFXFXSXHXmXbXbXcXbXlXwX5X4X2X6X6X6X6X6X6X6X",
"DXnXnXDXDXnXnXbXMXeX0XjXeXeX9X7XfX,.k l , 5.6.7.A B / ` _ ) ( r t r r r 9 7 t ) } ;.aXPXCXVXVXSXmXcXcXnXNXlX9X9X9X6X6X7X6X6X6X6X",
"nXmXDXFXDXDXDXnXMXmXbXbXlXjXjX0XfX2.k , F.tX8.8.6.M 5 ~ ] Q Q Q 9 9 9 9 9 0 t t u } P.sXsXyXrXrXrXhXnXmXnXlXjX9X6X6X6X6X6X6X6X6X",
"mXnXDXDXDXAXAXnXNXnXbXbXbXbXbXnXvXgXK.F.F.8.8.6.6.6.5 ^ Q Q o.^ ( r r 9 8 7 t t u _ a.E._.yXyXZ.Z.2.hXxXbXlXlX7X7X9X6X6X7X9XeXeX",
"nXnXDXNXnXDXAXnXFXDXnXcXbXnXnXNXAXgXtX8.8.8.8.8.A.h.U o.! ! #.#.Q w 8 8 w 7 r e e { -.Y.E.~.S.K.Z.<.r.nXbXlXjXeXeXeX9XeXeXeXlXMX",
"vXcXvXvXnXnXmXNXFXFXnXmXmXNXMXxXmXSXtX9.9.J.J.J.A.p.Y O.! ` X.X.! w 8 8 w 7 e e e { -.R.G g.h.g.C.<.:.nXcXkXkXdXcXkXlXkXlXbXcXkX",
"cXnXcXmXnXbXbXbXnXDXAXAXVXVXhXhXhXVX8.6.tXuXS.A.A.7.U X.! Q [ =.Q w 8 8 w 7 e e t { v.M.H 4.h.h.5.>.:.mXcXcXvXcXmXcXcXbXcXnXnXcX",
"cXcXmXvXnXmXNXmXnXDXSXVXUXIX0.0.tXtXD.A.uXuXJ.uX6.M K ..[ Q _ Q Q r 8 i w 7 e t t [ b.D.x.d.p.7.4.<.:.vXcXvXvXmXmXlXbXbXbXnXcXmX",
"VXhXVXVXhXhXhXVXVXCXIXUX5.5.5.3.5.4.f.M.!.J.J.8.7.K X.o.! ( r y w w w w 8 7 e t ) [ s.z.z.7.U P +.3.0.VXhXgXVXVXhXhXhXhXVXVXVXVX",
"H.H.H.S.G.~.G.H._.H.H.Z.: - > > : B =.o.7.6.6.7.6.X.=.! ` ( r y w 8 7 w w 7 e t ) [ O.K K K Z B B I k.H.H.H.H.G.H.S.H.G.G.G.G.G.",
"g.i.j.j.i.j.j.i.g.g.k.4.S F S D S W _ ] U T N < N > o.! ] Q r y i i w w 8 8 e u ) ( Z ..U N B X...$.B.k.j.j.k.j.j.j.j.g.a.i.i.f.",
"z.x.n.m.l.M.B.l.j.x.x.p.s M S V V V _ ] 6 A M < > ; B #.^ ! 9 8 7 7 w w w 7 e e e r _ X.Y Y V o.[ / | B.B.m.l.l.l.c.z.c.l.l.c.z.",
"U.U.E.U.Y.a b U.M.x.x.x.H D d 5 V ~ y ( X.U M A T > B X.X.~ 9 8 7 7 w w w w e e e t ` -.n - $ &.^ W f.t.G B.B.U.U.I.U.M.x.B.x.x.",
"pX/.aXpXw.% H.pX/./.iXiXI.n # 4 ~ q 8 9 ] #.x.7.> ; Z ^ ~ / 9 w 8 r w r 9 0 t ) t ) -.a.<.* + n.-.} N.t.3.uXpXiX/.iXiX(.pXiX(.iX",
"pXiXaXL.1 w.aXaXiX).u.g.E.!.s 4 q 6 8 9 ] / U 7.> ; Z Q ^ ! Q r r r r r 0 0 ( t ) ]  .i.0.k @ m -. .i.S._.S.y.~.iX(.pXpXiXiXpXpX",
"pXpXpXw.= w.pX(.pXG.l 3.iXiX4.4 q 6 q 9 Q Z N A , > / Q Q ! Q r ( ( y 0 Q 0 0 0 0 Q / | <.k o b &.W | g.D.S.b u.(.^././.iX/./.iX",
"iX).L.2 = L.iX)././.J 4.^.(.H d =./ 6 ~ X.C < < A > $.=.o.[ o.=.[ [ [ =.=.=.[ ] ^ ^ &.B.Z.k   3.-.W k.~.!.t.J E.^.(././././.pX^.",
"^.L.w.1 w.w.n.(./.!.!.^.E.^.S s m.f.*.a.+.g.A A.F F ^.W.W.W.Y.N.N.f.f.f.l.a.f.m.W.W.W.G l k o ~.W.Q.(.^.!.R.R.I.I.I.T.!.R.^.^.).",
"^.(.x R (.E.u.| B.(.R.I.E.E.U.c.U.U.T.T.T.D.R.!.h.h.!.x.j.j.<.$ n t.4.t.y.g.P.^.!.^.(.l 3.3.a iX(.^.T.k.j.i.t.y.t.t.t.i.I.^.!.^.",
"W.n.h L.P.k.j.G b b G | n.Q.R.^.^.R.^.^.A F R.D.D.J.x.i.t.y.*   o y.S.l.U.Q.Q.W.Q.P.Q.d G k., D.g.i.t.4.H i.i.t.i.j.k.I.^.R././.",
"W.n.f w.n G G 4.t.u.E b u.Q.R.R.R.R.R.R.F M f.a.J M i.t.k.: . . * pX/.^.Q.Q.Q.Q.R.R.t.b J i.s H D H i.g.D.U.T.T.R.U.R.R.R.).^.d ",
"W.V.u.G C._.H.C.G./.^.E.I.!.Q.R.R.Y.x.U.R.x.M.M.i.i.N.!.A o . . o k /.^.E.Y.Q.Y.E.Y.l.l.m.H H l.x.M.R.Q.^.Q.Q.R.Q.R.R.R.Q.R.^.l ",
"Q.Q.E._.uXIXZ.<.uX!.R.R.!.Q.Q.Q.m.H I p.x.Q.N.Y.W.W.^.t.+ @ * . X X $ T.Q.R.U.Y.Y.Y.Y.Y.M.M.M.Y.Y.Y.Y.Y.R.Y.R.Y.R.R.Q.Q.^.E.Q.W.",
"Y.E.).G.& <.k 3.E.M.M.Y.Y.E.W.Y.z.p.7.Y I R.Y.Y.Y.R.!.- o : O X @ : o + y.^.R.R.R.T.R.Y.U.Y.W.N.Y.Y.R.U.Y.Y.Y.Y.U.N.R.B.Y.Y.U.Y.",
"U.R.~.l & l n 3.t.a.m.M.M.N.N.M.m.+.K M M z.U.R.Y.I.!.4., $   X @ # l $ s Q.Q.R.R.Q.Y.R.Q.Y.U.W.Y.W.R.W.R.R.R.Y.Y.N.N.Y.N.N.N.B.",
"R.R.B.k.E.R.!.!.Y.Y.Y.N.M.N.N.N.M.a.L +.c.Y.M.m.N.N.M.Y.s - d a : - g.M.M.N.Y.Y.Y.Y.Y.R.R.R.R.R.W.Y.Y.W.R.Y.Y.Y.Y.W.Y.Y.N.m.N.N.",
"Y.Y.Y.W.W.Y.Y.Y.R.Y.W.W.W.Y.Y.Y.Y.Q.Y.R.Y.Y.Y.N.N.N.M.N.U.M.Y.R.U.c.M.M.N.M.M.M.M.N.Y.Y.N.N.Y.R.Y.V.N.N.Y.Y.Y.Y.N.N.N.m.N.N.m.m.",
"Y.R.N.Y.M.Y.Y.N.Y.N.N.N.N.Y.R.Y.Y.Y.N.U.Y.W.E.Y.Y.M.Y.N.Y.Y.M.N.Y.U.U.M.M.N.m.N.B.m.m.m.N.B.m.M.m.m.m.M.M.m.M.M.N.m.M.m.m.m.v.m.",
"m.m.B.M.N.M.m.N.N.N.M.V.N.N.N.U.N.M.N.N.B.N.V.N.N.N.N.Y.M.N.N.N.M.Y.M.Y.N.N.N.m.m.N.m.v.m.m.m.m.m.m.m.z.m.z.v.v.d.s.f.s.s.f.$.f.",
"V.m.m.M.m.v.v.v.v.m.m.m.m.m.v.m.v.m.m.m.m.m.v.m.m.m.m.m.m.m.v.B.m.m.m.N.N.M.N.m.m.m.m.m.m.N.M.M.M.m.m.m.v.B.v.b.d.s.s.@.@.O.+.O.",
"v.m.m.M.z.v.d.v.v.v.v.v.v.s.d.s.d.d.b.s.b.b.b.b.b.v.d.d.v.m.v.v.b.v.v.v.v.v.m.v.v.b.v.v.v.d.d.v.d.m.v.v.v.v.d.s.s.%.%.%.@.$.$.$.",
"b.d.d.v.v.v.d.z.m.z.v.d.v.v.v.m.d.d.d.d.s.b.%.s.s.%.s.s.s.s.$.s.b.%.b.d.s.s.s.b.s.b.s.d.s.s.s.b.s.s.%.s.s.s.%.%.%.%.s.%.$.@.+.+.",
"s.s.s.d.s.d.d.d.z.d.d.s.%.s.s.s.d.d.s.s.b.s.s.s.%.s.%.s.$.$.f.%.#.%.%.%.s.%.%.%.#.%.%.$.%.%.#.#.#.%.%.%.$.@.#.@.%.@... .L L L L ",
"%.%.$.s.%.s.%.s.s.s.s.%.%.b.#.%.s.s.s.s.s.s.s.s.%.%.%.%.%.%.%.%.$.$.$.$.$.$.%.&.@.@.@.&.O.@.&.&.@.@.$.@.@.@.O.@. .L C L L L L I ",
"X...O.O.@.@.#.#.$.$.#.$.#.#.#.#.#.$.$.$.$.s.$.$.%.%.#.#.%.f.$.%.$.$.s.$.$.$.$.$.$.$.$.@.#.#.@.#.@.$.$.$.+. .P K L K L F D H H t.",
"X.......O.O.O.O.O.....O.@.O.$.$.#.@.$.$.s.s.s.$.$.#.$.#.%.@.$.#.#.$.$.s.#.#.#.#.#.#.s.s.$.$.%.#.%.@.+.L C K C D D D H 4.S.yXaXsX",
"X.......O.O.......X.X.X.P P P P C P  .P  .+.O.+.$.@.@.@.@.@.@.$.$.#.$.@.$.@.O.@.O.@.+.+.$.O.....L L L L U +.p.p.h.D.uXuXaXaXaXZX"
};
