/* XPM */
static char *fe517ec29a344bebc98617bc1f8c3adcnMF9dBzouU9qdtWl[] = {
/* columns rows colors chars-per-pixel */
"64 64 255 2 ",
"   c #0F0B16",
".  c #361816",
"X  c #2D1A13",
"o  c #2B271D",
"O  c #3B241C",
"+  c #392417",
"@  c #363919",
"#  c #2E2E12",
"$  c #181629",
"%  c #1B1D32",
"&  c #2A1B2D",
"*  c #1B2C33",
"=  c #2B2929",
"-  c #392A26",
";  c #373627",
":  c #292835",
">  c #352B37",
",  c #3A3837",
"<  c #2B3634",
"1  c #4A1A12",
"2  c #482A06",
"3  c #452719",
"4  c #57271A",
"5  c #533510",
"6  c #6B371B",
"7  c #412C2B",
"8  c #442A23",
"9  c #473729",
"0  c #573828",
"q  c #463838",
"w  c #563C38",
"e  c #532B2B",
"r  c #63372A",
"t  c #613937",
"y  c #3F4030",
"u  c #5C490A",
"i  c #5B4815",
"p  c #595017",
"a  c #614C0D",
"s  c #654B17",
"d  c #63561A",
"f  c #725919",
"g  c #4C482C",
"h  c #59482B",
"j  c #4D4B33",
"k  c #494637",
"l  c #534D33",
"z  c #554D3B",
"x  c #584938",
"c  c #555234",
"v  c #5A5436",
"b  c #5A553B",
"n  c #5D593E",
"m  c #56533B",
"M  c #585329",
"N  c #684B28",
"B  c #655826",
"V  c #635C3D",
"C  c #685637",
"Z  c #755438",
"A  c #704E31",
"S  c #68613D",
"D  c #7D6132",
"F  c #173C49",
"G  c #16364B",
"H  c #293947",
"J  c #383549",
"K  c #2C2E5C",
"L  c #2C2D56",
"P  c #332E56",
"I  c #2D315C",
"U  c #2D3555",
"Y  c #37375A",
"T  c #292847",
"R  c #2A3163",
"E  c #383864",
"W  c #2E2E60",
"Q  c #443B47",
"!  c #453C54",
"~  c #433E68",
"^  c #1C4554",
"/  c #1B424B",
"(  c #28464A",
")  c #35474C",
"_  c #2B4D5A",
"`  c #274756",
"'  c #35475A",
"]  c #35555A",
"[  c #2C505C",
"{  c #384461",
"}  c #395664",
"|  c #33576A",
" . c #3B626A",
".. c #4B4444",
"X. c #4C444A",
"o. c #4C4A4C",
"O. c #484746",
"+. c #534A48",
"@. c #4A554B",
"#. c #5A5442",
"$. c #5D5B42",
"%. c #565448",
"&. c #4C4C53",
"*. c #48465A",
"=. c #554C5A",
"-. c #535552",
";. c #59555B",
":. c #42585D",
">. c #6B4A45",
",. c #625C43",
"<. c #685949",
"1. c #775646",
"2. c #685757",
"3. c #7A5A55",
"4. c #6F4D4D",
"5. c #5E645D",
"6. c #656243",
"7. c #6B6444",
"8. c #6B644A",
"9. c #6E694B",
"0. c #6A6748",
"q. c #726B46",
"w. c #746B4C",
"e. c #7A6D4C",
"r. c #756648",
"t. c #78714D",
"y. c #6E6B52",
"u. c #676355",
"i. c #726B52",
"p. c #796C53",
"a. c #756959",
"s. c #767154",
"d. c #7C7354",
"f. c #7B745B",
"g. c #7A765A",
"h. c #444264",
"j. c #4B4C65",
"k. c #45446B",
"l. c #49466C",
"z. c #4B4B6E",
"x. c #46486A",
"c. c #514E6E",
"v. c #534B63",
"b. c #445868",
"n. c #54516E",
"m. c #5B546D",
"M. c #5C596C",
"N. c #5A5864",
"B. c #4C4B71",
"V. c #4D4772",
"C. c #514E72",
"Z. c #514B7C",
"A. c #545272",
"S. c #595574",
"D. c #5D5A74",
"F. c #5B567B",
"G. c #5D5A7A",
"H. c #575877",
"J. c #4B5876",
"K. c #615D6B",
"L. c #675765",
"P. c #725D67",
"I. c #625D75",
"U. c #625E7B",
"Y. c #685C77",
"T. c #496A78",
"R. c #54686E",
"E. c #666666",
"W. c #756669",
"Q. c #7C7665",
"!. c #656175",
"~. c #6A6476",
"^. c #66617A",
"/. c #65627B",
"(. c #6B667D",
"). c #6E677D",
"_. c #6A647B",
"`. c #6D697C",
"'. c #70687D",
"]. c #726B7D",
"[. c #746679",
"{. c #78747D",
"}. c #68736A",
"|. c #85562E",
" X c #826738",
".X c #80612B",
"XX c #86594B",
"oX c #845953",
"OX c #847B5D",
"+X c #847757",
"@X c #8F6C53",
"#X c #847C62",
"$X c #857A68",
"%X c #877676",
"&X c #8F706D",
"*X c #A37A6E",
"=X c #8B8369",
"-X c #8A8478",
";X c #968478",
":X c #96846C",
">X c #AB8873",
",X c #94805F",
"<X c #4C5C82",
"1X c #5A5684",
"2X c #645C87",
"3X c #695F95",
"4X c #546F87",
"5X c #6B6381",
"6X c #6D6981",
"7X c #696285",
"8X c #746C82",
"9X c #766B86",
"0X c #767183",
"qX c #7B7484",
"wX c #7B768A",
"eX c #6D6497",
"rX c #7B7596",
"tX c #736A99",
"yX c #756CA3",
"uX c #827886",
"iX c #847A9B",
"pX c #9D7F81",
"aX c #867CA4",
"sX c #877FB8",
"dX c #898287",
"fX c #958A87",
"gX c #9A928B",
"hX c #8C8495",
"jX c #9B9493",
"kX c #9B9398",
"lX c #918997",
"zX c #A59897",
"xX c #AC938A",
"cX c #9488AB",
"vX c #8E86B6",
"bX c #978BB9",
"nX c #9A94BA",
"mX c #9089AB",
"MX c #A497BB",
"NX c #A195A3",
"BX c #A4A0AF",
"VX c #9A95C5",
"CX c #998FC2",
"ZX c #A798C8",
"AX c #A79DD4",
"SX c #B29CD4",
"DX c #B2A6CB",
"FX c #ADA5D9",
"GX c #B7A8D8",
"HX c #B3A9CF",
"JX c #B9ADE6",
"KX c #C1B1DB",
"LX c #C7B7E6",
"PX c #CCB8F2",
"IX c #D2C5FA",
/* pixels */
"I.!.I.!.I.I.I.K.D.M.D.M.S.m.S.n.A.C.C.c.C.C.B.z.c.z.z.z.z.z.l.l.z.l.x.z.x.z.l.l.z.l.l.z.l.l.x.z.c.c.c.j.j.z.c.c.c.v.n.n.n.m.m.D.",
"!.!.!.!.!.!.I.I.!.I.D.D.D.S.S.S.S.C.S.C.C.C.A.B.B.n.z.A.c.z.z.z.V.c.B.z.V.z.x.l.x.z.z.x.l.z.B.z.c.A.c.A.n.n.n.n.n.n.m.m.m.M.M.D.",
"~.Y.~.~.^._.^.!.I.I.I.I.D.D.m.S.S.A.S.A.A.C.A.A.C.C.A.B.c.C.c.c.z.z.n.z.z.z.z.z.z.z.z.z.z.z.A.C.A.A.A.S.A.A.S.n.A.S.m.S.S.D.D.I.",
"[._.~._._._._.^.^.I.I.D.D.D.D.D.D.H.S.S.S.S.A.A.H.A.A.A.C.C.C.C.A.z.B.C.z.C.z.c.z.z.A.z.C.C.A.C.A.A.A.A.A.S.n.n.S.S.m.S.m.M.I.M.",
"'.)._.).).~._._._.^.U.U.I.I.G.D.D.S.G.S.S.S.S.S.S.A.S.C.C.S.A.A.A.A.C.c.n.C.c.C.c.A.c.A.n.c.A.c.m.A.n.S.A.A.A.S.S.m.m.H.m.D.D.D.",
"'.'.).).).[.)._._.)._././.I.I.I.G.D.S.S.S.A.H.A.H.H.S.A.C.S.A.A.A.A.S.C.S.A.n.J.A.A.A.A.A.A.A.A.A.A.S.A.A.S.S.A.n.H.n.S.D.m.m.m.",
"'.'.[.'.'.).).).)._./././.I.U.U.U.G.G.S.H.A.S.S.A.F.S.F.F.A.S.F.A.S.S.S.A.A.A.A.A.A.A.A.C.A.C.A.n.c.A.J.n.A.A.A.S.n.n.n.n.N.S.S.",
"'.'.'.'.'.).).'.6X_.5X/./.I./.U.U.D.G.D.H.S.S.m.A.H.S.A.S.S.A.A.A.A.C.S.A.c.C.A.A.C.C.n.C.C.A.A.c.C.c.n.n.c.n.A.n.n.n.n.n.n.j.n.",
"[.'.).'.'.'.6X).6X_._./././.U./.I.G.G.H.S.n.A.J.A.J.A.A.A.A.A.C.C.C.c.c.A.c.A.A.A.c.A.C.C.A.c.c.n.A.A.B.n.n.n.B.c.z.n.c.c.c.c.j.",
").).).).).).'.`._././.U.U./.U.I.G.D.H.m.A.A.C.c.n.c.c.A.c.c.C.C.C.c.c.C.c.c.z.n.c.C.c.C.A.c.C.c.C.z.n.n.z.z.z.c.z.c.z.c.z.n.c.n.",
").).).).).).`.^._.^.^.I.D.U.G.G.H.S.H.A.A.z.A.A.B.z.c.z.z.z.B.B.B.A.C.C.C.C.A.B.z.A.A.C.J.n.C.C.c.B.C.z.z.z.B.x.z.c.z.c.z.c.j.j.",
").6X6X).`.`.(._.^.^.I.I.D.D.D.S.D.H.n.A.n.A.B.z.z.z.B.V.x.z.B.B.B.z.z.c.C.C.B.B.z.C.B.c.B.c.B.z.c.z.B.x.j.z.B.x.z.z.z.z.z.z.B.c.",
"_._._._.(.^.^.^./.!.I.G.G.S.S.A.A.A.z.C.C.B.B.B.z.z.B.x.V.B.B.k.z.z.B.B.x.B.B.x.B.B.B.B.x.B.B.B.B.B.B.x.k.B.B.k.l.B.x.B.z.B.B.z.",
"_._._._.(._.^.!././.G.D.D.S.S.A.C.A.A.z.B.x.B.B.B.z.B.B.V.V.B.V.B.x.B.x.x.B.B.B.z.z.B.B.x.B.B.k.x.x.x.l.V.k.k.B.B.l.B.k.z.z.z.z.",
"_.).`./././.5X/.I.U.G./.G.S.S.S.A.A.c.J.B.B.B.B.B.B.B.B.| V.B.B.B.B.x.B.B.B.B.B.z.x.B.x.B.B.k.B.l.B.V.B.B.B.k.B.k.B.B.B.B.B.B.B.",
"6X_._._.^././././././.2XI.G.H.S.A.J.C.B.z.B.k.B.B.k.B.B.V.B.V.B.B.B.B.B.B.B.k.B.B.B.B.B.B.B.B.B.B.V.l.B.k.V.B.V.k.B.k.B.B.x.B.x.",
"6X_.5X[.5X~.Y.I.2X7X2X2XS.S.F.S.Z.S.Z.V.C.V.V.V.x.z.B.B.B.B.k.B.B.B.B.B.B.B.B.B.C.B.x.z.B.B.l.B.x.B.B.B.V.l.c.c.l.V.V.l.l.z.V.x.",
"6X).[.[.2X2XcXDXKXJXLXSXcXY.F.F.F.S.C.S.C.V.V.z.j.j.x.B.B.k.B.B.B.x.B.x.V.B.B.x.l.x.B.z.l.k.B.B.B.B.l.V.V.~ ~ ~ ~ ~ k.V.z.z.j.V.",
"'.].9X5XmXGXLXKXPXPXPXPXPXKXiXm.S.m.C.C.C.Z.A.B.j.c.B.k.k.B.J.B.B.| B.B.k.x.z.z.B.x.x.B.V.B.k.J.B.k.k.k.2XiXsXvXsXeX1Xk.l.V.x.B.",
"8X8X9XcXKXGXZXSXSXPXPXGXSXKXLXaXm.C.F.A.A.A.A.B.B.j.B.V.Z.B.k.B.V.V.B.x.x.B.j.l.z.B.x.B.B.x.B.B.{ V.aXGXLXIXPXIXIXPXGXnXF.z.B.A.",
"uX8XcXGXZXMXZXMXZXZXSXZXZXZXSXKXrXn.G.S.S.S.A.A.B.A.V.<X<XV.B.V.Z.B.B.B.z.z.z.z.z.B.C.B.l.C.l.k.yXFXLXKXSXGXLXJXAXZXDXGXHX7XS.S.",
"[.lXHXZXMXcXiXiXcXaX9XaXbXMXMXMXDX7XS.D.H.H.F.A.B.V.1XVXCX1XB.C.B.B.Z.B.C.C.z.V.V.z.B.B.C.C.l.aXLXGXZXZXMXbXCXsXmXvXcXcXMXZXY.F.",
"9XMXhX9XwXv.Q =.+.Q q X.W.W.[.cXDXiXG.G.D.D.F.F.1X1XyXAXAX3XC.C.A.B.C.B.C.V.V.C.C.C.A.B.C.V.S.KXSXCXbXaXaXaXiXiXtXrXwXiXiXcXcXS.",
"kXhXQ ! ! Q Q 7 > 7 - - - - 7 N.hXcX/.I.I.D.G.U.1X1XyXsXsX3XC.A.A.A.C.C.A.Z.C.C.C.A.C.F.c.c.U.iXmXaXiXwX9X9XY.2X_.^.~.[.].qXcX7X",
"L., X.+.Q q 7 7 - - = O - O 9 q > !.wXI._.!.D./.G.1XZ.yXeXZ.1XS.S.H.S.S.H.F.C.A.S.n.n.S.S.A.A.v.wXwX6XM.M.b.j.=.v.=.=.;.;.M.0XwX",
", < - 7 7 7 8 O - . o = + 8 O - , J !.(.^.!._././.G.3XFXVX1XF.G.m.D.H.H.H.H.S.S.H.H.H.H.C.D.S.Y.M.N.N.=.&.*.O.&.&.&.&.-.-.;.R.~.",
"O.- - 8 - 8 3 8 - - q X - + - - > < ;.(._.!././.Y.2XyXAXVXeXF./.I.I.G.G.G.G.D.D.R.H.H.A.G.U.S.[.;...X.o.o.O.o.&.&.&.&.-.-.-.u.E.",
"&.> O 8 8 8 3 3 O - O o 5 + + - , J M.].^._.`./.).U.1XsXvXeX7X/.U.U./.2X/.U.I.I.D./.H.2X2XK.[.=.<.3.w +.X.O.X.o.O.o.@.o.@.-.5.E.",
"uXW.8 8 O 8 - . 3 3 5 D f i o < > E.0X`.`.{.`.6X).eX3XeX3X3X7X/._././.2X7X/././.Y.Y.2XY.Y.P.&XoXoXoXa.+...+.....o.o.o.@.@.%.5.E.",
"uXuXQ . O O O O 3 0  XD s h c @.2.{.`.{.0X6X`.0X8X9XtXyXyX2X6X6X6X'.5X5X/._._._.2XY.).[.[.&X>X XXX@X4.w q ..k @.O.o.-.&.-.-.;.E.",
").{.W.- O O O + + 2 5 2 2 i @ o , {.{.{.0X0XwX0XqXv.T bXCXeX8X6X8X'.'.].`.(.`.].Y.uXP.P.&X@X>Xa 5 1.q q ..@.k k O.o.&.&.-.-.u.~.",
"Y.Y.%XP.7 . + X X 2 + 5 5 @ @ ; , {.{.dXwXwXwXqXwX(.% 3XMXtXwX8X0X].0X].{.{.{.{.9XuXL.. t A |..X2 h 7 7 k +.<.z +.+.o.-.-.;.N.{.",
"m.I.K.[.P.q 8 + 2 X X + @ @ @ ; u.uXuXqXuXuX{.wXqXwXS.I.9XrXrXqXqXqX0X0XqXqX0XqXuXuXt e 1 e 6 N 5 A 1.w >.oX3.oX4.q +.-.=.N.E.~.",
"l.v.c.m.L.>.<.1.1.N 3 9 @ # # k {.uX{.uXqX{.uXuXwXwX: % $ n.uX9X0X%XqXqXqXqX9XqXuXpX4.& 1 r *X6 6 2 Z oXoXoXoXoX>.w <.+.;.N.M.*.",
"~ j.j.j.! - 9 5 e >.w q @ @ o E.uXqX0XqXuXqXwXqXuX].$ & $ *.uXqXqXuX8XqXqXqXuX%X&X&X4.. 1 t *XXXN B 1.XXoXoXoXoX4.1.3.k X.=.*.! ",
"~ ~ { *.;.2.XX0 5 9 O + o 9 w W.!.6X8X8XqX0XqX0XuX].:     =.uXuXuXqXuXqXqX9XuX%X&X4.4.e . t &X*XA XXA 1.4.oXoXoXoXoX3.+.J j.h.Y ",
"*.h.h.*.2.+XD .XD ,XS + q Q w ! v.c.m.D.D.U./.5X_.0XJ     K.qX0XwX0X9X0X8X].[.[.[.P.L.3.8 r.@X X5 r.A >.&X=.=.=.=.L.z q *.*.' ! ",
"j.x.x.*.u.D f f f  X*Xh e & & & ' Y Y ~ ~ l.V.l.l.M.&     *.).Y.I././.G.I.m.L.m.S.I.m.=.2.:X@XA 6 Z Z oX&X=.4.~ v.&., , v.h.x.*.",
"z.B.B.*.q.f s a B d q.C - > & J J L P I P E E P Y U       : z.j.x.x.k.k.h.~ k.k.l.l.h.*.Q.OXC d XX@XXXXX&XP.v.m.L.N.J ..m.c.l.j.",
"V.k.B.-.S a a d d B C p.Q J J P P I I I W K K I U T $ * : % U U I I W K L P P E { E h.&.g.S p d A |.XX*X&X&XL.S.M.I.M.L.Y.U.2XH.",
"l.V.l.=.B u u d d B B 9.&.H J I W W W K K W R R K E U T T U E R K K K W L P U I E ~ l.2.9.B B s s Z Z r.W.oXY.U.!.~.~.~.Y.Y.G.H.",
"V.B.z.;.B u a d B d B S ;.Y ~ Y E W P E <X<X<X<X<X<XJ.T.T.<X<XJ.<X<XE L P L U Y *.l.l.L.6.S d p s s s 1.4.Q {.`.~._.^.!.I.I.G.D.",
"B.z.n.;.B u u d d B B V ;.*.h.~ E E P H ) U _ { { ` _ _ F ` _ _ ` ' P Y E ~ Y { j.v.M.E.6.B d s a a s C 2.=.6X`.(.~.^././.D.D.D.",
"z.c.c.N.C p u u N B B V ;.*.j.~ ~ E ' H b.} |  .` F }  .| } } ` F _ H *.~ E k.z.j.j.M.K.0.S s a a a u C W.[.6X`.(.~._.(./.!.I.I.",
"n.n.n.K.,.i s u i i N 1.L.m.n.S.C.n.G.b.( ) H ( ( ( [ ( ( ( ( ` ` _ b.c.Z.Z.C.j.b.n.S.M.u.c i a u a a B W.6X6X_.6X[._._.!.!.!.!.",
"N.I.I.~.a.h 5 i N C r 2 2.~.E.^.U.nXnX' ] ] ] ] / / [ ] ] ] ] ( F } _ mXFXyX~ j.=.v.v.v.%.v f a a 5 N C E.E.!.].].].].].{.~.~.~.",
"dXhXiXpXfX>.2 XXxX>X6 1 %XfXlXhXrXFXVX' } ( ( ] ( F  .T./ [ T.( H } ' mXFXCXG.{.uXdXuX].$Xh 1 6 6 1 Z *X-XdXdXhXlXhXdXgXfXhXdXdX",
"jXgXkXzXxX>.1 *XxX>X1 r zXjXzXNXMXAXVXE } ^ /  .] ]  .] / ^  . .} } Y bXFXAXBXkXgXgXzXzXzX*X4 1 6 1 Z xXzXzXzXzXzXjXjXjXjXjXjXjX",
"dXfX-X;X;X0 r *X>X1.3 A ;XgXxXkXnXJXVXx._ ^ ^ ^ ( ( / ( ^ ^ ^ ( ( _ { nXJXDXkXgXgXfXkXkXfXzXpXe 4 4 4 >XxX;XgXjXjXgXgXgXgXfX-XjX",
"$XQ.$XQ.a.>.r.&X@X0 3 0 w <.;XdXlXvXmXx.| / / T. .]  . ./ ^  . .] } ' rXvXbXfXfXfXfX-X-XdXkXzX2.t r 8 oX;X%X;X;X-X-X-X-X{.-X-X-X",
"y.u.<.%.x x <.,.x x b x w x 8.Q.2.X.*.<  ._ ` 4X[ /  . .^ [ T.[ F } H O.Q L.:X=X=X=X$X-X$X<.q O.! P.P.P.{.$XQ.#XQ.OX#X#XQ.=X=X-X",
"j j k #.j k g k z z x #.l b ,.,.<.u.= ) ) [ _ ` ^ ^ [ | [ [ [ ^ ^ ` ) , +.$X#XOX=XQ.#Xs.<.$.+.+.L.lXuXE.2.a.i.d.OX=X#XOXQ.Q.Q.Q.",
"%.#.#.#.#.m m m v n n b n ,.$.,.,.2.* H ( ) ] } ^ ^ ^ [ ] [ ] ^ F _ ) < %.=X=XOX=X=Xd.t.V b ,.#.%.k q +.m 6.b b 7.7.i.i.a.Q.Q.W.",
"%.$.,.#.$.$.n n $.6.$.$.$.,.,.n y.y.o ( b.) ( T.[ G  .4X( ( 4X^ F [ :., z =X=X=Xg.=X,X+X9.V b m #.#.$.n b $.V v b v m c n 6.s.Q.",
"<.,.$.m $.m n ,.$.6.V v c v n <.=Xu.: % H ( < T.` * ] R.* ( R.< H ) : = %.$Xg.OXt.S 7.q.8.w.8.n #.b x b ,.V b b x v v v m c c ,.",
"g.i.y.u.$.n 6.6.6.0.,.8.8.7.7.e.g.8.: : O.}.}.5.R.@.) @.@.}.}.}.}.-.: = z OXd.g.t.w.v v 7.V b b b b b n b v v v c c c c c c c c ",
"i.w.a.d.p.p.p.i.i.p.d.d.d.e.t.e.p.8.o = 5.s.y.s.w.6.b n y.f.g.p.Q.y.k ; j g.d.g.OXg.S M c V S c v v c v c j c c c c c c l j l m ",
"q.7.9.w.i.i.i.w.i.w.w.p.r.t.t.e.d.<.X , -XQ.Q.OX=XOXd.f.Q.$X#XOXOXQ.Q.; c =Xd.d.d.d.t.t.S q.q.S c c c c c c l c l l l l l c n 0.",
"0.0.8.w.i.r.p.i.p.e.p.r.w.t.t.g.#X,.= = ) o.X.o.o.@.+.-.+.o.X...@.k q X j Q.f.p.e.D t.OXOXt.t.t.S S V v c c c l c c c c V 7.w.d.",
"9.9.w.r.i.i.w.r.w.p.+Xp.s.t.w.w.s.z ; 5.....X.X.X.k O.o.k O.@.O.k ..&., k f.p.+X+Xt.S q.t.t.t.q.t.t.t.t.q.q.q.S 9.9.w.w.r.q.7.S ",
"y.8.y.9.9.w.w.w.w.w.w.s.s.s.s.g.g.#.o u.W.a.Q.a.a.a.a.s.y.s.y.y.a.a.}.y 9 i.w.e.e.D t.q.q.q.q.S S q.q.q.7.r.r.e.r.r.q.7.7.S 6.0.",
"y.y.9.9.9.d.g.+Xt.w.t.g.g.s.i.y.Q.%.o $.c m j b x c v m c c c c v m <.y k y.w.t.+Xr.w.w.q.q.S t.t.t.S S q.r.+X+XS S S q.e.q.S S ",
"i.9.8.8.9.i.s.s.9.9.9.w.i.9.9.i.y.k = z g c l g l g l j k j m b c x z ; , y.6.q.w.p.p.7.9.q.9.p.9.7.7.S 7.w.w.t.e.7.S 6.S 6.6.n ",
"<.,.7.8.9.u.6.6.7.y.a.9.<.8.8.8.n o ; k g g g g g g l v j k z j g g j ; ; 0.y.i.i.w.w.7.q.9.8.8.7.w.q.q.q.0.0.6.S S 0.0.0.S n S "
};
